<svg width="73" height="69" viewBox="0 0 73 69" fill="none" xmlns="http://www.w3.org/2000/svg">
<g filter="url(#filter0_d)">
<path d="M30.4544 0.802612C23.018 0.802612 17.0506 5.92242 17.0506 15.7074C17.0506 22.0973 19.5894 28.6058 23.4444 32.6161C24.948 36.6265 22.2366 38.1189 21.6746 38.3314C13.8931 41.1928 4.80273 46.3818 4.80273 51.5362V53.4635C4.80273 60.4884 18.1474 62.1119 30.5284 62.1119C33.2269 62.1073 35.9244 62.0051 38.6156 61.8055C35.2457 58.2398 33.3715 53.5125 33.3802 48.6007C33.3802 44.1752 34.8838 40.1204 37.3831 36.8637C37.0134 35.9939 36.8655 34.6225 37.5384 32.5395C41.3713 28.5242 43.8558 22.0726 43.8558 15.7049C43.8558 5.92242 37.881 0.805083 30.452 0.805083L30.4544 0.802612ZM52.6381 33.0016C48.5115 33.0016 44.5539 34.6449 41.636 37.5701C38.718 40.4953 37.0787 44.4627 37.0787 48.5995C37.0787 52.7363 38.718 56.7037 41.636 59.6288C44.5539 62.554 48.5115 64.1973 52.6381 64.1973C56.7647 64.1973 60.7223 62.554 63.6402 59.6288C66.5582 56.7037 68.1975 52.7363 68.1975 48.5995C68.1975 44.4627 66.5582 40.4953 63.6402 37.5701C60.7223 34.6449 56.7647 33.0016 52.6381 33.0016ZM50.4813 39.9524H54.7948V46.362H61.1887V50.8394H54.7948V57.249H50.4813V50.8394H44.0111V46.362H50.4813V39.9524Z" fill="white"/>
</g>
<defs>
<filter id="filter0_d" x="0.802734" y="0.802612" width="71.3947" height="72.3947" filterUnits="userSpaceOnUse" color-interpolation-filters="sRGB">
<feFlood flood-opacity="0" result="BackgroundImageFix"/>
<feColorMatrix in="SourceAlpha" type="matrix" values="0 0 0 0 0 0 0 0 0 0 0 0 0 0 0 0 0 0 127 0" result="hardAlpha"/>
<feOffset dy="5"/>
<feGaussianBlur stdDeviation="2"/>
<feComposite in2="hardAlpha" operator="out"/>
<feColorMatrix type="matrix" values="0 0 0 0 0 0 0 0 0 0 0 0 0 0 0 0 0 0 0.25 0"/>
<feBlend mode="normal" in2="BackgroundImageFix" result="effect1_dropShadow"/>
<feBlend mode="normal" in="SourceGraphic" in2="effect1_dropShadow" result="shape"/>
</filter>
</defs>
</svg>
