<svg width="102" height="103" viewBox="0 0 102 103" fill="none" xmlns="http://www.w3.org/2000/svg">
<g filter="url(#filter0_d)">
<rect x="34" y="19.2925" width="36.0609" height="57.6974" fill="#004483"/>
<path d="M71.2754 1.60261C70.7263 1.0549 69.9825 0.747235 69.2069 0.74707L32.7935 0.74707C32.018 0.747235 31.2741 1.0549 30.725 1.60261L4.97664 27.351C4.42892 27.9001 4.12126 28.6439 4.12109 29.4195V65.8329C4.12126 66.6084 4.42892 67.3523 4.97664 67.9014L30.725 93.6498C31.2741 94.1975 32.018 94.5051 32.7935 94.5053H69.2069C69.9825 94.5051 70.7263 94.1975 71.2754 93.6498L97.0238 67.9014C97.5715 67.3523 97.8792 66.6084 97.8793 65.8329V29.4195C97.8792 28.6439 97.5715 27.9001 97.0238 27.351L71.2754 1.60261ZM51.0002 24.1866C54.1353 24.1866 56.5905 26.8939 56.2741 30.0172L54.2232 50.5679C54.1542 51.3752 53.7848 52.1272 53.188 52.6753C52.5912 53.2233 51.8105 53.5274 51.0002 53.5274C50.19 53.5274 49.4092 53.2233 48.8124 52.6753C48.2156 52.1272 47.8462 51.3752 47.7773 50.5679L45.7263 30.0172C45.6527 29.2802 45.7342 28.536 45.9657 27.8325C46.1971 27.1289 46.5734 26.4816 47.0702 25.9324C47.5671 25.3831 48.1735 24.944 48.8503 24.6433C49.5272 24.3426 50.2596 24.187 51.0002 24.1866ZM51.0119 59.346C52.5661 59.346 54.0566 59.9634 55.1555 61.0623C56.2544 62.1612 56.8718 63.6517 56.8718 65.2059C56.8718 66.76 56.2544 68.2505 55.1555 69.3494C54.0566 70.4484 52.5661 71.0658 51.0119 71.0658C49.4578 71.0658 47.9673 70.4484 46.8684 69.3494C45.7694 68.2505 45.152 66.76 45.152 65.2059C45.152 63.6517 45.7694 62.1612 46.8684 61.0623C47.9673 59.9634 49.4578 59.346 51.0119 59.346Z" fill="#01FFCD"/>
</g>
<defs>
<filter id="filter0_d" x="0.121094" y="0.74707" width="101.758" height="101.758" filterUnits="userSpaceOnUse" color-interpolation-filters="sRGB">
<feFlood flood-opacity="0" result="BackgroundImageFix"/>
<feColorMatrix in="SourceAlpha" type="matrix" values="0 0 0 0 0 0 0 0 0 0 0 0 0 0 0 0 0 0 127 0" result="hardAlpha"/>
<feOffset dy="4"/>
<feGaussianBlur stdDeviation="2"/>
<feComposite in2="hardAlpha" operator="out"/>
<feColorMatrix type="matrix" values="0 0 0 0 0 0 0 0 0 0 0 0 0 0 0 0 0 0 0.2 0"/>
<feBlend mode="normal" in2="BackgroundImageFix" result="effect1_dropShadow"/>
<feBlend mode="normal" in="SourceGraphic" in2="effect1_dropShadow" result="shape"/>
</filter>
</defs>
</svg>
