<svg width="74" height="98" viewBox="0 0 74 98" fill="none" xmlns="http://www.w3.org/2000/svg">
<rect x="8.60352" y="35.3276" width="57.8448" height="52.5862" fill="#004483"/>
<path d="M19.2184 6.29995H9.5499C7.12317 6.29995 4.79583 7.26397 3.07987 8.97993C1.36392 10.6959 0.399902 13.0232 0.399902 15.45V88.6499C0.399902 91.0767 1.36392 93.404 3.07987 95.12C4.79583 96.8359 7.12317 97.7999 9.5499 97.7999H64.4499C66.8766 97.7999 69.204 96.8359 70.9199 95.12C72.6359 93.404 73.5999 91.0767 73.5999 88.6499V15.45C73.5999 13.0232 72.6359 10.6959 70.9199 8.97993C69.204 7.26397 66.8766 6.29995 64.4499 6.29995H54.7814C54.1504 4.51523 52.9814 2.97014 51.4355 1.87762C49.8896 0.785111 48.0429 0.19896 46.1499 0.199952H27.8499C25.9569 0.19896 24.1102 0.785111 22.5643 1.87762C21.0184 2.97014 19.8494 4.51523 19.2184 6.29995ZM27.8499 6.29995H46.1499C46.9588 6.29995 47.7346 6.62129 48.3066 7.19328C48.8786 7.76526 49.1999 8.54104 49.1999 9.34995C49.1999 10.1589 48.8786 10.9346 48.3066 11.5066C47.7346 12.0786 46.9588 12.4 46.1499 12.4H27.8499C27.041 12.4 26.2652 12.0786 25.6932 11.5066C25.1212 10.9346 24.7999 10.1589 24.7999 9.34995C24.7999 8.54104 25.1212 7.76526 25.6932 7.19328C26.2652 6.62129 27.041 6.29995 27.8499 6.29995ZM30.8999 39.8499C30.8999 39.041 31.2212 38.2653 31.7932 37.6933C32.3652 37.1213 33.141 36.7999 33.9499 36.7999H55.2999C56.1088 36.7999 56.8846 37.1213 57.4566 37.6933C58.0286 38.2653 58.3499 39.041 58.3499 39.8499C58.3499 40.6589 58.0286 41.4346 57.4566 42.0066C56.8846 42.5786 56.1088 42.9 55.2999 42.9H33.9499C33.141 42.9 32.3652 42.5786 31.7932 42.0066C31.2212 41.4346 30.8999 40.6589 30.8999 39.8499ZM30.8999 58.15C30.8999 57.341 31.2212 56.5653 31.7932 55.9933C32.3652 55.4213 33.141 55.0999 33.9499 55.0999H55.2999C56.1088 55.0999 56.8846 55.4213 57.4566 55.9933C58.0286 56.5653 58.3499 57.341 58.3499 58.15C58.3499 58.9589 58.0286 59.7346 57.4566 60.3066C56.8846 60.8786 56.1088 61.2 55.2999 61.2H33.9499C33.141 61.2 32.3652 60.8786 31.7932 60.3066C31.2212 59.7346 30.8999 58.9589 30.8999 58.15ZM30.8999 76.45C30.8999 75.641 31.2212 74.8653 31.7932 74.2933C32.3652 73.7213 33.141 73.3999 33.9499 73.3999H55.2999C56.1088 73.3999 56.8846 73.7213 57.4566 74.2933C58.0286 74.8653 58.3499 75.641 58.3499 76.45C58.3499 77.2589 58.0286 78.0346 57.4566 78.6066C56.8846 79.1786 56.1088 79.4999 55.2999 79.4999H33.9499C33.141 79.4999 32.3652 79.1786 31.7932 78.6066C31.2212 78.0346 30.8999 77.2589 30.8999 76.45ZM24.7999 39.8499C24.7999 41.0633 24.3179 42.227 23.4599 43.085C22.6019 43.9429 21.4383 44.4249 20.2249 44.4249C19.0115 44.4249 17.8479 43.9429 16.9899 43.085C16.1319 42.227 15.6499 41.0633 15.6499 39.8499C15.6499 38.6366 16.1319 37.4729 16.9899 36.6149C17.8479 35.757 19.0115 35.275 20.2249 35.275C21.4383 35.275 22.6019 35.757 23.4599 36.6149C24.3179 37.4729 24.7999 38.6366 24.7999 39.8499ZM24.7999 58.15C24.7999 59.3633 24.3179 60.527 23.4599 61.385C22.6019 62.2429 21.4383 62.7249 20.2249 62.7249C19.0115 62.7249 17.8479 62.2429 16.9899 61.385C16.1319 60.527 15.6499 59.3633 15.6499 58.15C15.6499 56.9366 16.1319 55.7729 16.9899 54.9149C17.8479 54.057 19.0115 53.575 20.2249 53.575C21.4383 53.575 22.6019 54.057 23.4599 54.9149C24.3179 55.7729 24.7999 56.9366 24.7999 58.15ZM20.2249 81.0249C19.0115 81.0249 17.8479 80.5429 16.9899 79.685C16.1319 78.827 15.6499 77.6633 15.6499 76.45C15.6499 75.2366 16.1319 74.0729 16.9899 73.2149C17.8479 72.357 19.0115 71.8749 20.2249 71.8749C21.4383 71.8749 22.6019 72.357 23.4599 73.2149C24.3179 74.0729 24.7999 75.2366 24.7999 76.45C24.7999 77.6633 24.3179 78.827 23.4599 79.685C22.6019 80.5429 21.4383 81.0249 20.2249 81.0249Z" fill="#01FFCD"/>
</svg>
