<svg width="91" height="91" viewBox="0 0 91 91" fill="none" xmlns="http://www.w3.org/2000/svg">
<rect x="4.43896" y="48.8291" width="44.3902" height="29.9634" fill="#004483"/>
<path d="M22.75 2.84375C22.75 2.08954 22.4504 1.36622 21.9171 0.832915C21.3838 0.299609 20.6605 0 19.9062 0C19.152 0 18.4287 0.299609 17.8954 0.832915C17.3621 1.36622 17.0625 2.08954 17.0625 2.84375V5.6875H11.375C8.35816 5.6875 5.46489 6.88593 3.33166 9.01916C1.19843 11.1524 0 14.0457 0 17.0625L0 22.75H91V17.0625C91 14.0457 89.8016 11.1524 87.6683 9.01916C85.5351 6.88593 82.6418 5.6875 79.625 5.6875H73.9375V2.84375C73.9375 2.08954 73.6379 1.36622 73.1046 0.832915C72.5713 0.299609 71.848 0 71.0938 0C70.3395 0 69.6162 0.299609 69.0829 0.832915C68.5496 1.36622 68.25 2.08954 68.25 2.84375V5.6875H22.75V2.84375ZM91 79.625V28.4375H0V79.625C0 82.6418 1.19843 85.5351 3.33166 87.6683C5.46489 89.8016 8.35816 91 11.375 91H79.625C82.6418 91 85.5351 89.8016 87.6683 87.6683C89.8016 85.5351 91 82.6418 91 79.625ZM54.0312 39.8125H59.7188C60.473 39.8125 61.1963 40.1121 61.7296 40.6454C62.2629 41.1787 62.5625 41.902 62.5625 42.6562V48.3438C62.5625 49.098 62.2629 49.8213 61.7296 50.3546C61.1963 50.8879 60.473 51.1875 59.7188 51.1875H54.0312C53.277 51.1875 52.5537 50.8879 52.0204 50.3546C51.4871 49.8213 51.1875 49.098 51.1875 48.3438V42.6562C51.1875 41.902 51.4871 41.1787 52.0204 40.6454C52.5537 40.1121 53.277 39.8125 54.0312 39.8125ZM71.0938 39.8125H76.7812C77.5355 39.8125 78.2588 40.1121 78.7921 40.6454C79.3254 41.1787 79.625 41.902 79.625 42.6562V48.3438C79.625 49.098 79.3254 49.8213 78.7921 50.3546C78.2588 50.8879 77.5355 51.1875 76.7812 51.1875H71.0938C70.3395 51.1875 69.6162 50.8879 69.0829 50.3546C68.5496 49.8213 68.25 49.098 68.25 48.3438V42.6562C68.25 41.902 68.5496 41.1787 69.0829 40.6454C69.6162 40.1121 70.3395 39.8125 71.0938 39.8125ZM11.375 59.7188C11.375 58.9645 11.6746 58.2412 12.2079 57.7079C12.7412 57.1746 13.4645 56.875 14.2188 56.875H19.9062C20.6605 56.875 21.3838 57.1746 21.9171 57.7079C22.4504 58.2412 22.75 58.9645 22.75 59.7188V65.4062C22.75 66.1605 22.4504 66.8838 21.9171 67.4171C21.3838 67.9504 20.6605 68.25 19.9062 68.25H14.2188C13.4645 68.25 12.7412 67.9504 12.2079 67.4171C11.6746 66.8838 11.375 66.1605 11.375 65.4062V59.7188ZM31.2812 56.875H36.9688C37.723 56.875 38.4463 57.1746 38.9796 57.7079C39.5129 58.2412 39.8125 58.9645 39.8125 59.7188V65.4062C39.8125 66.1605 39.5129 66.8838 38.9796 67.4171C38.4463 67.9504 37.723 68.25 36.9688 68.25H31.2812C30.527 68.25 29.8037 67.9504 29.2704 67.4171C28.7371 66.8838 28.4375 66.1605 28.4375 65.4062V59.7188C28.4375 58.9645 28.7371 58.2412 29.2704 57.7079C29.8037 57.1746 30.527 56.875 31.2812 56.875Z" fill="#01FFCD"/>
</svg>
