<svg width="42" height="42" viewBox="0 0 42 42" fill="none" xmlns="http://www.w3.org/2000/svg">
<path d="M0.166748 4.33332V33.5L10.1667 26C10.8876 25.4583 11.7647 25.1667 12.6667 25.1667H29.3334C30.4385 25.1667 31.4983 24.7277 32.2797 23.9463C33.0611 23.1649 33.5001 22.1051 33.5001 21V4.33332C33.5001 3.22825 33.0611 2.16845 32.2797 1.38704C31.4983 0.605643 30.4385 0.166656 29.3334 0.166656H4.33341C3.22835 0.166656 2.16854 0.605643 1.38714 1.38704C0.605735 2.16845 0.166748 3.22825 0.166748 4.33332ZM4.33341 25.1667V4.33332H29.3334V21H11.2792C10.3773 20.9976 9.49934 21.2902 8.77925 21.8333L4.33341 25.1667Z" fill="white"/>
<path d="M41.8335 41.8333V14.75C41.8335 13.6449 41.3945 12.5851 40.6131 11.8037C39.8317 11.0223 38.7719 10.5833 37.6668 10.5833V33.5L33.221 30.1666C32.5009 29.6235 31.6229 29.3309 30.721 29.3333H10.5835C10.5835 29.8805 10.6913 30.4223 10.9007 30.9278C11.1101 31.4334 11.417 31.8927 11.8039 32.2796C12.1908 32.6665 12.6501 32.9734 13.1556 33.1828C13.6612 33.3922 14.203 33.5 14.7502 33.5H29.3335C30.2356 33.5 31.1127 33.7916 31.8335 34.3333L41.8335 41.8333Z" fill="white"/>
</svg>
