<svg width="108" height="105" viewBox="0 0 108 105" fill="none" xmlns="http://www.w3.org/2000/svg">
<path d="M30.4268 8.76L22.8001 1.13334C10.0001 10.8933 1.57345 25.9333 0.826782 43H11.4935C11.8712 36.2363 13.7699 29.645 17.0479 23.7167C20.326 17.7885 24.8991 12.676 30.4268 8.76ZM96.5068 43H107.173C106.373 25.9333 97.9468 10.8933 85.2001 1.13334L77.6268 8.76C83.1308 12.6953 87.6835 17.8134 90.9506 23.7385C94.2177 29.6636 96.1162 36.2452 96.5068 43ZM86.0001 45.6667C86.0001 29.2933 77.2535 15.5867 62.0001 11.96V0.333336H46.0001V11.96C30.6935 15.5867 22.0001 29.24 22.0001 45.6667V72.3334L11.3335 83V88.3334H96.6668V83L86.0001 72.3334V45.6667ZM54.0001 104.333C54.7468 104.333 55.4401 104.28 56.1335 104.12C59.6001 103.373 62.4268 101.027 63.8135 97.8267C64.3468 96.5467 64.6135 95.16 64.6135 93.6667H43.2801C43.3335 99.5334 48.0801 104.333 54.0001 104.333Z" fill="white"/>
</svg>
