<svg width="83" height="72" viewBox="0 0 83 72" fill="none" xmlns="http://www.w3.org/2000/svg">
<g filter="url(#filter0_i)">
<rect x="29" y="22" width="26" height="43" fill="white"/>
</g>
<path d="M82.4466 64.32L47.0333 2.88C44.8199 -0.96 38.7333 -0.96 36.5199 2.88L0.553258 64.32C-1.66008 67.68 1.65992 72 6.08659 72H76.9133C81.3399 72 84.1066 67.68 82.4466 64.32ZM41.4999 62.4C37.0733 62.4 33.1999 59.04 33.1999 55.2C33.1999 51.36 36.5199 48 41.4999 48C46.4799 48 49.7999 51.36 49.7999 55.2C49.7999 59.52 45.9266 62.4 41.4999 62.4ZM47.0333 43.2H35.9666L33.1999 26.4C33.1999 24.96 34.3066 24 35.9666 24H47.0333C48.6933 24 49.7999 24.96 49.7999 26.4L47.0333 43.2Z" fill="url(#paint0_linear)"/>
<defs>
<filter id="filter0_i" x="29" y="22" width="30" height="47" filterUnits="userSpaceOnUse" color-interpolation-filters="sRGB">
<feFlood flood-opacity="0" result="BackgroundImageFix"/>
<feBlend mode="normal" in="SourceGraphic" in2="BackgroundImageFix" result="shape"/>
<feColorMatrix in="SourceAlpha" type="matrix" values="0 0 0 0 0 0 0 0 0 0 0 0 0 0 0 0 0 0 127 0" result="hardAlpha"/>
<feOffset dx="6" dy="5"/>
<feGaussianBlur stdDeviation="2"/>
<feComposite in2="hardAlpha" operator="arithmetic" k2="-1" k3="1"/>
<feColorMatrix type="matrix" values="0 0 0 0 0 0 0 0 0 0 0 0 0 0 0 0 0 0 0.25 0"/>
<feBlend mode="normal" in2="shape" result="effect1_innerShadow"/>
</filter>
<linearGradient id="paint0_linear" x1="41" y1="-12" x2="41" y2="52.5" gradientUnits="userSpaceOnUse">
<stop stop-color="#01FFCD"/>
<stop offset="1" stop-color="#007BB1"/>
</linearGradient>
</defs>
</svg>

