<svg width="64" height="58" viewBox="0 0 64 58" fill="none" xmlns="http://www.w3.org/2000/svg">
<path d="M15.75 20.9992V20.7491C13.1781 20.8415 10.6053 20.9078 8.032 20.948C6.96309 20.9606 5.9418 21.3921 5.18778 22.1499C4.43377 22.9076 4.00726 23.931 4 25M15.75 20.9992C13.1794 21.0915 10.6079 21.1578 8.0359 21.198L8.03493 21.198C7.03152 21.2098 6.07281 21.6149 5.365 22.3262C4.65738 23.0373 4.25703 23.9977 4.25 25.0009M15.75 20.9992V36.9987C13.1769 36.8868 10.6022 36.8159 8.0269 36.786M15.75 20.9992C15.8333 20.9962 15.9167 20.9932 16 20.9902V37.0097L15.75 37.249C13.176 37.1369 10.6003 37.0659 8.024 37.036M4.25 25.0009V25H4M4.25 25.0009C4.25 25.0011 4.25 25.0014 4.24999 25.0017L4 25M4.25 25.0009V33C4.25 35.0613 5.93003 36.7596 8.0269 36.786M4 25V33C4 35.2 5.792 37.008 8.024 37.036M8.024 37.036L8.0269 36.786M8.024 37.036L8.02714 36.786C8.02706 36.786 8.02698 36.786 8.0269 36.786M-0.250001 33L-0.249999 33.0007L7.976 41.032L7.97266 41.282C7.97294 41.282 7.97324 41.282 7.97352 41.282C8.19312 41.2849 8.4127 41.2881 8.63229 41.2916L15.9588 55.1129C16.2904 55.866 16.8335 56.5066 17.5223 56.957C18.2137 57.4091 19.0219 57.6499 19.848 57.65H22.0399C22.04 57.65 22.04 57.65 22.04 57.65C22.6648 57.6501 23.282 57.5125 23.8475 57.247C24.4131 56.9814 24.9132 56.5943 25.3121 56.1134C25.711 55.6325 25.999 55.0696 26.1555 54.4647C26.3117 53.8613 26.3332 53.231 26.2186 52.6184L24.6467 42.093C34.1475 43.0667 43.2705 45.4496 51.75 50.289V51C51.75 52.6576 52.4085 54.2473 53.5806 55.4194C54.7527 56.5915 56.3424 57.25 58 57.25C59.6576 57.25 61.2473 56.5915 62.4194 55.4194C63.5915 54.2473 64.25 52.6576 64.25 51V7C64.25 5.3424 63.5915 3.75269 62.4194 2.58058C61.2473 1.40848 59.6576 0.75 58 0.75C56.3424 0.75 54.7527 1.40848 53.5806 2.58058C52.4085 3.75269 51.75 5.3424 51.75 7V7.70623C42.3032 13.0338 29.9814 15.7862 17.8879 16.3983C14.582 16.5532 11.2738 16.6531 7.96461 16.698L7.96454 16.698C5.78034 16.7283 3.69544 17.6153 2.15895 19.168C0.622465 20.7207 -0.242639 22.8148 -0.25 24.9992V25L-0.250001 33ZM20.0093 53.154L13.7933 41.4212C15.8775 41.4973 17.9608 41.5974 20.0427 41.7214L21.7502 53.154H20.0093ZM56.25 51V7C56.25 6.53587 56.4344 6.09075 56.7626 5.76256C57.0908 5.43437 57.5359 5.25 58 5.25C58.4641 5.25 58.9092 5.43437 59.2374 5.76256C59.5656 6.09075 59.75 6.53587 59.75 7V51C59.75 51.4641 59.5656 51.9092 59.2374 52.2374C58.9093 52.5656 58.4641 52.75 58 52.75C57.5359 52.75 57.0907 52.5656 56.7626 52.2374C56.4344 51.9092 56.25 51.4641 56.25 51ZM20.25 37.2278V20.7652C31.2193 19.9905 42.4695 17.4945 51.75 12.808V45.1672C42.338 40.2857 32.3303 38.1068 22.167 37.3587C21.5311 37.3087 20.8921 37.2651 20.25 37.2278Z" fill="white" stroke="white" stroke-width="0.5"/>
</svg>
