<svg width="53" height="46" viewBox="0 0 53 46" fill="none" xmlns="http://www.w3.org/2000/svg">
<path d="M39.1083 12.825L36.2583 4.27292C35.8449 3.02809 35.0497 1.94521 33.9857 1.17814C32.9216 0.411075 31.6429 -0.00116293 30.3313 2.46411e-06H11.3354C10.0237 -0.00116293 8.74503 0.411075 7.68101 1.17814C6.61699 1.94521 5.82177 3.02809 5.40833 4.27292L2.55833 12.825C1.80128 13.1427 1.15474 13.6766 0.699677 14.3599C0.244609 15.0433 0.00122727 15.8457 0 16.6667V27.0833C0 28.6521 0.88125 30.0042 2.16458 30.7146C2.1375 30.8521 2.08333 30.9771 2.08333 31.1208V35.4167C2.08333 35.9692 2.30283 36.4991 2.69353 36.8898C3.08423 37.2805 3.61413 37.5 4.16667 37.5H6.25C6.80254 37.5 7.33244 37.2805 7.72314 36.8898C8.11384 36.4991 8.33333 35.9692 8.33333 35.4167V31.25H33.3333V35.4167C33.3333 35.9692 33.5528 36.4991 33.9435 36.8898C34.3342 37.2805 34.8641 37.5 35.4167 37.5H37.5C38.0525 37.5 38.5824 37.2805 38.9731 36.8898C39.3638 36.4991 39.5833 35.9692 39.5833 35.4167V31.1208C39.5833 30.9771 39.5292 30.85 39.5021 30.7146C40.155 30.3586 40.7004 29.8338 41.0811 29.1951C41.4619 28.5563 41.6641 27.827 41.6667 27.0833V16.6667C41.6667 14.9396 40.6083 13.4563 39.1083 12.825ZM4.16667 27.0833V16.6667H37.5L37.5042 27.0833H4.16667ZM11.3354 4.16667H30.3292C31.2271 4.16667 32.0229 4.7375 32.3063 5.59167L34.6104 12.5H7.05625L9.35834 5.59167C9.49656 5.17666 9.76191 4.81568 10.1168 4.55991C10.4716 4.30415 10.898 4.16656 11.3354 4.16667Z" fill="white"/>
<path d="M9.5415 27.3334C11.2674 27.3334 12.6665 25.9343 12.6665 24.2084C12.6665 22.4825 11.2674 21.0834 9.5415 21.0834C7.81561 21.0834 6.4165 22.4825 6.4165 24.2084C6.4165 25.9343 7.81561 27.3334 9.5415 27.3334Z" fill="white"/>
<path d="M32.4584 27.3334C34.1843 27.3334 35.5834 25.9343 35.5834 24.2084C35.5834 22.4825 34.1843 21.0834 32.4584 21.0834C30.7325 21.0834 29.3334 22.4825 29.3334 24.2084C29.3334 25.9343 30.7325 27.3334 32.4584 27.3334Z" fill="white"/>
<ellipse cx="35.2917" cy="31.8333" rx="12.0417" ry="11.3333" fill="#004483"/>
<path d="M36 16.6667C27.6235 16.6667 20.8334 23.4568 20.8334 31.8333C20.8334 40.2099 27.6235 47 36 47C44.3766 47 51.1667 40.2099 51.1667 31.8333C51.1667 23.4568 44.3766 16.6667 36 16.6667ZM28.6933 24.5266C30.6311 22.5887 33.2595 21.5 36 21.5C38.7406 21.5 41.3689 22.5887 43.3068 24.5266C45.2447 26.4644 46.3334 29.0928 46.3334 31.8333C46.3334 34.5739 45.2447 37.2022 43.3068 39.1401C41.3689 41.078 38.7406 42.1667 36 42.1667C33.2595 42.1667 30.6311 41.078 28.6933 39.1401C26.7554 37.2022 25.6667 34.5739 25.6667 31.8333C25.6667 29.0928 26.7554 26.4644 28.6933 24.5266Z" fill="white" stroke="#004483" stroke-width="2"/>
<path d="M38.4167 24.75C38.4167 24.109 38.1621 23.4944 37.7088 23.0411C37.2556 22.5879 36.6409 22.3333 36 22.3333C35.3591 22.3333 34.7444 22.5879 34.2912 23.0411C33.8379 23.4944 33.5833 24.109 33.5833 24.75V29.4166H28.9167C28.2757 29.4166 27.661 29.6713 27.2078 30.1245L27.9149 30.8316L27.2078 30.1245C26.7546 30.5777 26.5 31.1924 26.5 31.8333C26.5 32.4743 26.7546 33.0889 27.2078 33.5422C27.661 33.9954 28.2757 34.25 28.9167 34.25H33.5833V38.9166C33.5833 39.5576 33.8379 40.1723 34.2912 40.6255C34.7444 41.0787 35.3591 41.3333 36 41.3333C36.6409 41.3333 37.2556 41.0787 37.7088 40.6255C38.1621 40.1723 38.4167 39.5576 38.4167 38.9166V34.25H43.0833C43.7243 34.25 44.339 33.9954 44.7922 33.5422C45.2454 33.0889 45.5 32.4743 45.5 31.8333C45.5 31.1924 45.2454 30.5777 44.7922 30.1245C44.339 29.6713 43.7243 29.4166 43.0833 29.4166H38.4167V24.75Z" fill="white" stroke="#004483" stroke-width="2"/>
</svg>

