<svg width="46" height="46" viewBox="0 0 46 46" fill="none" xmlns="http://www.w3.org/2000/svg">
<mask id="path-1-outside-1" maskUnits="userSpaceOnUse" x="0" y="0" width="46" height="46" fill="black">
<rect fill="white" width="46" height="46"/>
<path fill-rule="evenodd" clip-rule="evenodd" d="M22.8663 4C12.4469 4 4 12.4357 4 22.8411C4 33.2465 12.4469 41.6822 22.8663 41.6822C33.2856 41.6822 41.7325 33.2465 41.7325 22.8411C41.7325 12.4357 33.2856 4 22.8663 4ZM31.0439 19.6552C31.1945 19.4833 31.3092 19.2831 31.3811 19.0663C31.4531 18.8495 31.4809 18.6205 31.4629 18.3928C31.4449 18.1652 31.3815 17.9434 31.2765 17.7405C31.1714 17.5376 31.0268 17.3578 30.8511 17.2116C30.6754 17.0654 30.4722 16.9557 30.2534 16.8891C30.0347 16.8225 29.8048 16.8002 29.5773 16.8236C29.3498 16.847 29.1293 16.9156 28.9288 17.0254C28.7282 17.1352 28.5517 17.2839 28.4095 17.4628L21.0345 26.2993L17.2184 22.4865C16.8949 22.1745 16.4617 22.0019 16.012 22.0058C15.5623 22.0097 15.1321 22.1898 14.8141 22.5074C14.4961 22.825 14.3157 23.2546 14.3118 23.7037C14.3079 24.1528 14.4808 24.5854 14.7932 24.9085L19.9386 30.0469C20.1071 30.2151 20.3089 30.3464 20.531 30.4324C20.7531 30.5184 20.9908 30.5573 21.2288 30.5465C21.4668 30.5357 21.7 30.4755 21.9134 30.3697C22.1268 30.264 22.3158 30.1149 22.4684 29.9322L31.0439 19.6552Z"/>
</mask>
<path fill-rule="evenodd" clip-rule="evenodd" d="M22.8663 4C12.4469 4 4 12.4357 4 22.8411C4 33.2465 12.4469 41.6822 22.8663 41.6822C33.2856 41.6822 41.7325 33.2465 41.7325 22.8411C41.7325 12.4357 33.2856 4 22.8663 4ZM31.0439 19.6552C31.1945 19.4833 31.3092 19.2831 31.3811 19.0663C31.4531 18.8495 31.4809 18.6205 31.4629 18.3928C31.4449 18.1652 31.3815 17.9434 31.2765 17.7405C31.1714 17.5376 31.0268 17.3578 30.8511 17.2116C30.6754 17.0654 30.4722 16.9557 30.2534 16.8891C30.0347 16.8225 29.8048 16.8002 29.5773 16.8236C29.3498 16.847 29.1293 16.9156 28.9288 17.0254C28.7282 17.1352 28.5517 17.2839 28.4095 17.4628L21.0345 26.2993L17.2184 22.4865C16.8949 22.1745 16.4617 22.0019 16.012 22.0058C15.5623 22.0097 15.1321 22.1898 14.8141 22.5074C14.4961 22.825 14.3157 23.2546 14.3118 23.7037C14.3079 24.1528 14.4808 24.5854 14.7932 24.9085L19.9386 30.0469C20.1071 30.2151 20.3089 30.3464 20.531 30.4324C20.7531 30.5184 20.9908 30.5573 21.2288 30.5465C21.4668 30.5357 21.7 30.4755 21.9134 30.3697C22.1268 30.264 22.3158 30.1149 22.4684 29.9322L31.0439 19.6552Z" fill="white"/>
<path d="M31.0439 19.6552L28.0351 17.0195L28.0035 17.0556L27.9727 17.0925L31.0439 19.6552ZM28.4095 17.4628L31.4805 20.0259L31.5114 19.9888L31.5414 19.9511L28.4095 17.4628ZM21.0345 26.2993L18.2074 29.129L21.3022 32.2211L24.1055 28.8623L21.0345 26.2993ZM17.2184 22.4865L20.0456 19.6568L20.0207 19.632L19.9953 19.6075L17.2184 22.4865ZM14.7932 24.9085L11.9179 27.6892L11.9421 27.7142L11.9667 27.7388L14.7932 24.9085ZM19.9386 30.0469L17.112 32.8773L17.1129 32.8781L19.9386 30.0469ZM22.4684 29.9322L25.5391 32.4955L25.5396 32.4949L22.4684 29.9322ZM22.8663 0C10.2428 0 0 10.2215 0 22.8411H8C8 14.6498 14.651 8 22.8663 8V0ZM0 22.8411C0 35.4607 10.2428 45.6822 22.8663 45.6822V37.6822C14.651 37.6822 8 31.0323 8 22.8411H0ZM22.8663 45.6822C35.4897 45.6822 45.7325 35.4607 45.7325 22.8411H37.7325C37.7325 31.0323 31.0815 37.6822 22.8663 37.6822V45.6822ZM45.7325 22.8411C45.7325 10.2215 35.4897 0 22.8663 0V8C31.0815 8 37.7325 14.6498 37.7325 22.8411H45.7325ZM34.0527 22.291C34.5548 21.7178 34.9374 21.0498 35.1775 20.3262L27.5847 17.8064C27.681 17.5164 27.8342 17.2489 28.0351 17.0195L34.0527 22.291ZM35.1775 20.3262C35.4176 19.6027 35.5105 18.8383 35.4505 18.0781L27.4753 18.7076C27.4512 18.4028 27.4885 18.0964 27.5847 17.8064L35.1775 20.3262ZM35.4505 18.0781C35.3905 17.318 35.1789 16.5777 34.8283 15.9008L27.7246 19.5802C27.5842 19.309 27.4993 19.0123 27.4753 18.7076L35.4505 18.0781ZM34.8283 15.9008C34.4777 15.224 33.9953 14.6243 33.4098 14.137L28.2924 20.2862C28.0582 20.0913 27.8651 19.8513 27.7246 19.5802L34.8283 15.9008ZM33.4098 14.137C32.8243 13.6498 32.1474 13.2846 31.4189 13.0627L29.0879 20.7156C28.797 20.6269 28.5265 20.481 28.2924 20.2862L33.4098 14.137ZM31.4189 13.0627C30.6906 12.8408 29.9252 12.7667 29.1679 12.8446L29.9867 20.8026C29.6844 20.8337 29.3788 20.8042 29.0879 20.7156L31.4189 13.0627ZM29.1679 12.8446C28.4106 12.9226 27.6763 13.151 27.0083 13.5166L30.8493 20.5342C30.5823 20.6803 30.289 20.7715 29.9867 20.8026L29.1679 12.8446ZM27.0083 13.5166C26.3402 13.8823 25.7517 14.3779 25.2777 14.9745L31.5414 19.9511C31.3516 20.1899 31.1162 20.3881 30.8493 20.5342L27.0083 13.5166ZM25.3386 14.8998L17.9636 23.7362L24.1055 28.8623L31.4805 20.0259L25.3386 14.8998ZM23.8617 23.4696L20.0456 19.6568L14.3912 25.3162L18.2074 29.129L23.8617 23.4696ZM19.9953 19.6075C18.9171 18.5675 17.4741 17.9929 15.9773 18.0059L16.0467 26.0056C15.4493 26.0108 14.8728 25.7815 14.4415 25.3655L19.9953 19.6075ZM15.9773 18.0059C14.4805 18.0189 13.0476 18.6185 11.9876 19.6771L17.6407 25.3377C17.2166 25.7612 16.6441 26.0004 16.0467 26.0056L15.9773 18.0059ZM11.9876 19.6771C10.9274 20.7359 10.325 22.1693 10.312 23.6689L18.3117 23.7385C18.3064 24.3399 18.0649 24.9141 17.6407 25.3377L11.9876 19.6771ZM10.312 23.6689C10.2989 25.1684 10.8762 26.6121 11.9179 27.6892L17.6685 22.1277C18.0854 22.5587 18.3169 23.1371 18.3117 23.7385L10.312 23.6689ZM11.9667 27.7388L17.112 32.8773L22.7651 27.2166L17.6198 22.0781L11.9667 27.7388ZM17.1129 32.8781C17.6747 33.4388 18.347 33.8762 19.0868 34.1626L21.9752 26.7023C22.2707 26.8167 22.5395 26.9914 22.7642 27.2158L17.1129 32.8781ZM19.0868 34.1626C19.8265 34.449 20.6177 34.5783 21.4101 34.5424L21.0475 26.5506C21.3638 26.5362 21.6798 26.5879 21.9752 26.7023L19.0868 34.1626ZM21.4101 34.5424C22.2024 34.5064 22.9787 34.306 23.6895 33.9537L20.1372 26.7857C20.4212 26.6449 20.7312 26.5649 21.0475 26.5506L21.4101 34.5424ZM23.6895 33.9537C24.4004 33.6014 25.0304 33.1049 25.5391 32.4955L19.3976 27.3689C19.6012 27.125 19.8532 26.9265 20.1372 26.7857L23.6895 33.9537ZM25.5396 32.4949L34.1151 22.218L27.9727 17.0925L19.3972 27.3694L25.5396 32.4949Z" fill="#007BB1" mask="url(#path-1-outside-1)"/>
</svg>
