<svg width="47" height="62" viewBox="0 0 47 62" fill="none" xmlns="http://www.w3.org/2000/svg">
<mask id="path-1-outside-1" maskUnits="userSpaceOnUse" x="0" y="0.200012" width="47" height="62" fill="black">
<rect fill="white" y="0.200012" width="47" height="62"/>
<path d="M19.6667 25.4667C19.6667 24.9716 19.8633 24.4968 20.2134 24.1467C20.5635 23.7967 21.0383 23.6 21.5333 23.6H34.6C35.0951 23.6 35.5699 23.7967 35.9199 24.1467C36.27 24.4968 36.4667 24.9716 36.4667 25.4667C36.4667 25.9617 36.27 26.4365 35.9199 26.7866C35.5699 27.1367 35.0951 27.3333 34.6 27.3333H21.5333C21.0383 27.3333 20.5635 27.1367 20.2134 26.7866C19.8633 26.4365 19.6667 25.9617 19.6667 25.4667ZM19.6667 36.6667C19.6667 36.1716 19.8633 35.6968 20.2134 35.3467C20.5635 34.9967 21.0383 34.8 21.5333 34.8H34.6C35.0951 34.8 35.5699 34.9967 35.9199 35.3467C36.27 35.6968 36.4667 36.1716 36.4667 36.6667C36.4667 37.1617 36.27 37.6365 35.9199 37.9866C35.5699 38.3367 35.0951 38.5333 34.6 38.5333H21.5333C21.0383 38.5333 20.5635 38.3367 20.2134 37.9866C19.8633 37.6365 19.6667 37.1617 19.6667 36.6667ZM19.6667 47.8667C19.6667 47.3716 19.8633 46.8968 20.2134 46.5467C20.5635 46.1967 21.0383 46 21.5333 46H34.6C35.0951 46 35.5699 46.1967 35.9199 46.5467C36.27 46.8968 36.4667 47.3716 36.4667 47.8667C36.4667 48.3617 36.27 48.8365 35.9199 49.1866C35.5699 49.5367 35.0951 49.7333 34.6 49.7333H21.5333C21.0383 49.7333 20.5635 49.5367 20.2134 49.1866C19.8633 48.8365 19.6667 48.3617 19.6667 47.8667ZM15.9333 25.4667C15.9333 26.2093 15.6383 26.9215 15.1132 27.4466C14.5881 27.9717 13.8759 28.2667 13.1333 28.2667C12.3907 28.2667 11.6785 27.9717 11.1534 27.4466C10.6283 26.9215 10.3333 26.2093 10.3333 25.4667C10.3333 24.7241 10.6283 24.0119 11.1534 23.4868C11.6785 22.9617 12.3907 22.6667 13.1333 22.6667C13.8759 22.6667 14.5881 22.9617 15.1132 23.4868C15.6383 24.0119 15.9333 24.7241 15.9333 25.4667ZM15.9333 36.6667C15.9333 37.4093 15.6383 38.1215 15.1132 38.6466C14.5881 39.1717 13.8759 39.4667 13.1333 39.4667C12.3907 39.4667 11.6785 39.1717 11.1534 38.6466C10.6283 38.1215 10.3333 37.4093 10.3333 36.6667C10.3333 35.9241 10.6283 35.2119 11.1534 34.6868C11.6785 34.1617 12.3907 33.8667 13.1333 33.8667C13.8759 33.8667 14.5881 34.1617 15.1132 34.6868C15.6383 35.2119 15.9333 35.9241 15.9333 36.6667ZM13.1333 50.6667C13.8759 50.6667 14.5881 50.3717 15.1132 49.8466C15.6383 49.3215 15.9333 48.6093 15.9333 47.8667C15.9333 47.1241 15.6383 46.4119 15.1132 45.8868C14.5881 45.3617 13.8759 45.0667 13.1333 45.0667C12.3907 45.0667 11.6785 45.3617 11.1534 45.8868C10.6283 46.4119 10.3333 47.1241 10.3333 47.8667C10.3333 48.6093 10.6283 49.3215 11.1534 49.8466C11.6785 50.3717 12.3907 50.6667 13.1333 50.6667ZM12.5173 4.93335C12.9035 3.84105 13.619 2.89543 14.5651 2.22678C15.5112 1.55814 16.6415 1.19941 17.8 1.20001H29C30.1586 1.19941 31.2888 1.55814 32.2349 2.22678C33.181 2.89543 33.8965 3.84105 34.2827 4.93335H40.2C41.6852 4.93335 43.1096 5.52334 44.1598 6.57355C45.21 7.62375 45.8 9.04813 45.8 10.5333V55.3333C45.8 56.8186 45.21 58.2429 44.1598 59.2931C43.1096 60.3433 41.6852 60.9333 40.2 60.9333H6.6C5.11479 60.9333 3.69041 60.3433 2.6402 59.2931C1.59 58.2429 1 56.8186 1 55.3333V10.5333C1 9.04813 1.59 7.62375 2.6402 6.57355C3.69041 5.52334 5.11479 4.93335 6.6 4.93335H12.5173ZM17.8 4.93335C17.3049 4.93335 16.8301 5.13001 16.4801 5.48008C16.13 5.83015 15.9333 6.30494 15.9333 6.80001C15.9333 7.29508 16.13 7.76988 16.4801 8.11995C16.8301 8.47001 17.3049 8.66668 17.8 8.66668H29C29.4951 8.66668 29.9699 8.47001 30.3199 8.11995C30.67 7.76988 30.8667 7.29508 30.8667 6.80001C30.8667 6.30494 30.67 5.83015 30.3199 5.48008C29.9699 5.13001 29.4951 4.93335 29 4.93335H17.8ZM12.5173 8.66668H6.6C6.10493 8.66668 5.63014 8.86335 5.28007 9.21341C4.93 9.56348 4.73333 10.0383 4.73333 10.5333V55.3333C4.73333 55.8284 4.93 56.3032 5.28007 56.6533C5.63014 57.0033 6.10493 57.2 6.6 57.2H40.2C40.6951 57.2 41.1699 57.0033 41.5199 56.6533C41.87 56.3032 42.0667 55.8284 42.0667 55.3333V10.5333C42.0667 10.0383 41.87 9.56348 41.5199 9.21341C41.1699 8.86335 40.6951 8.66668 40.2 8.66668H34.2827C33.8965 9.75897 33.181 10.7046 32.2349 11.3732C31.2888 12.0419 30.1586 12.4006 29 12.4H17.8C16.6415 12.4006 15.5112 12.0419 14.5651 11.3732C13.619 10.7046 12.9035 9.75897 12.5173 8.66668Z"/>
</mask>
<path d="M19.6667 25.4667C19.6667 24.9716 19.8633 24.4968 20.2134 24.1467C20.5635 23.7967 21.0383 23.6 21.5333 23.6H34.6C35.0951 23.6 35.5699 23.7967 35.9199 24.1467C36.27 24.4968 36.4667 24.9716 36.4667 25.4667C36.4667 25.9617 36.27 26.4365 35.9199 26.7866C35.5699 27.1367 35.0951 27.3333 34.6 27.3333H21.5333C21.0383 27.3333 20.5635 27.1367 20.2134 26.7866C19.8633 26.4365 19.6667 25.9617 19.6667 25.4667ZM19.6667 36.6667C19.6667 36.1716 19.8633 35.6968 20.2134 35.3467C20.5635 34.9967 21.0383 34.8 21.5333 34.8H34.6C35.0951 34.8 35.5699 34.9967 35.9199 35.3467C36.27 35.6968 36.4667 36.1716 36.4667 36.6667C36.4667 37.1617 36.27 37.6365 35.9199 37.9866C35.5699 38.3367 35.0951 38.5333 34.6 38.5333H21.5333C21.0383 38.5333 20.5635 38.3367 20.2134 37.9866C19.8633 37.6365 19.6667 37.1617 19.6667 36.6667ZM19.6667 47.8667C19.6667 47.3716 19.8633 46.8968 20.2134 46.5467C20.5635 46.1967 21.0383 46 21.5333 46H34.6C35.0951 46 35.5699 46.1967 35.9199 46.5467C36.27 46.8968 36.4667 47.3716 36.4667 47.8667C36.4667 48.3617 36.27 48.8365 35.9199 49.1866C35.5699 49.5367 35.0951 49.7333 34.6 49.7333H21.5333C21.0383 49.7333 20.5635 49.5367 20.2134 49.1866C19.8633 48.8365 19.6667 48.3617 19.6667 47.8667ZM15.9333 25.4667C15.9333 26.2093 15.6383 26.9215 15.1132 27.4466C14.5881 27.9717 13.8759 28.2667 13.1333 28.2667C12.3907 28.2667 11.6785 27.9717 11.1534 27.4466C10.6283 26.9215 10.3333 26.2093 10.3333 25.4667C10.3333 24.7241 10.6283 24.0119 11.1534 23.4868C11.6785 22.9617 12.3907 22.6667 13.1333 22.6667C13.8759 22.6667 14.5881 22.9617 15.1132 23.4868C15.6383 24.0119 15.9333 24.7241 15.9333 25.4667ZM15.9333 36.6667C15.9333 37.4093 15.6383 38.1215 15.1132 38.6466C14.5881 39.1717 13.8759 39.4667 13.1333 39.4667C12.3907 39.4667 11.6785 39.1717 11.1534 38.6466C10.6283 38.1215 10.3333 37.4093 10.3333 36.6667C10.3333 35.9241 10.6283 35.2119 11.1534 34.6868C11.6785 34.1617 12.3907 33.8667 13.1333 33.8667C13.8759 33.8667 14.5881 34.1617 15.1132 34.6868C15.6383 35.2119 15.9333 35.9241 15.9333 36.6667ZM13.1333 50.6667C13.8759 50.6667 14.5881 50.3717 15.1132 49.8466C15.6383 49.3215 15.9333 48.6093 15.9333 47.8667C15.9333 47.1241 15.6383 46.4119 15.1132 45.8868C14.5881 45.3617 13.8759 45.0667 13.1333 45.0667C12.3907 45.0667 11.6785 45.3617 11.1534 45.8868C10.6283 46.4119 10.3333 47.1241 10.3333 47.8667C10.3333 48.6093 10.6283 49.3215 11.1534 49.8466C11.6785 50.3717 12.3907 50.6667 13.1333 50.6667ZM12.5173 4.93335C12.9035 3.84105 13.619 2.89543 14.5651 2.22678C15.5112 1.55814 16.6415 1.19941 17.8 1.20001H29C30.1586 1.19941 31.2888 1.55814 32.2349 2.22678C33.181 2.89543 33.8965 3.84105 34.2827 4.93335H40.2C41.6852 4.93335 43.1096 5.52334 44.1598 6.57355C45.21 7.62375 45.8 9.04813 45.8 10.5333V55.3333C45.8 56.8186 45.21 58.2429 44.1598 59.2931C43.1096 60.3433 41.6852 60.9333 40.2 60.9333H6.6C5.11479 60.9333 3.69041 60.3433 2.6402 59.2931C1.59 58.2429 1 56.8186 1 55.3333V10.5333C1 9.04813 1.59 7.62375 2.6402 6.57355C3.69041 5.52334 5.11479 4.93335 6.6 4.93335H12.5173ZM17.8 4.93335C17.3049 4.93335 16.8301 5.13001 16.4801 5.48008C16.13 5.83015 15.9333 6.30494 15.9333 6.80001C15.9333 7.29508 16.13 7.76988 16.4801 8.11995C16.8301 8.47001 17.3049 8.66668 17.8 8.66668H29C29.4951 8.66668 29.9699 8.47001 30.3199 8.11995C30.67 7.76988 30.8667 7.29508 30.8667 6.80001C30.8667 6.30494 30.67 5.83015 30.3199 5.48008C29.9699 5.13001 29.4951 4.93335 29 4.93335H17.8ZM12.5173 8.66668H6.6C6.10493 8.66668 5.63014 8.86335 5.28007 9.21341C4.93 9.56348 4.73333 10.0383 4.73333 10.5333V55.3333C4.73333 55.8284 4.93 56.3032 5.28007 56.6533C5.63014 57.0033 6.10493 57.2 6.6 57.2H40.2C40.6951 57.2 41.1699 57.0033 41.5199 56.6533C41.87 56.3032 42.0667 55.8284 42.0667 55.3333V10.5333C42.0667 10.0383 41.87 9.56348 41.5199 9.21341C41.1699 8.86335 40.6951 8.66668 40.2 8.66668H34.2827C33.8965 9.75897 33.181 10.7046 32.2349 11.3732C31.2888 12.0419 30.1586 12.4006 29 12.4H17.8C16.6415 12.4006 15.5112 12.0419 14.5651 11.3732C13.619 10.7046 12.9035 9.75897 12.5173 8.66668Z" fill="white"/>
<path d="M19.6667 25.4667C19.6667 24.9716 19.8633 24.4968 20.2134 24.1467C20.5635 23.7967 21.0383 23.6 21.5333 23.6H34.6C35.0951 23.6 35.5699 23.7967 35.9199 24.1467C36.27 24.4968 36.4667 24.9716 36.4667 25.4667C36.4667 25.9617 36.27 26.4365 35.9199 26.7866C35.5699 27.1367 35.0951 27.3333 34.6 27.3333H21.5333C21.0383 27.3333 20.5635 27.1367 20.2134 26.7866C19.8633 26.4365 19.6667 25.9617 19.6667 25.4667ZM19.6667 36.6667C19.6667 36.1716 19.8633 35.6968 20.2134 35.3467C20.5635 34.9967 21.0383 34.8 21.5333 34.8H34.6C35.0951 34.8 35.5699 34.9967 35.9199 35.3467C36.27 35.6968 36.4667 36.1716 36.4667 36.6667C36.4667 37.1617 36.27 37.6365 35.9199 37.9866C35.5699 38.3367 35.0951 38.5333 34.6 38.5333H21.5333C21.0383 38.5333 20.5635 38.3367 20.2134 37.9866C19.8633 37.6365 19.6667 37.1617 19.6667 36.6667ZM19.6667 47.8667C19.6667 47.3716 19.8633 46.8968 20.2134 46.5467C20.5635 46.1967 21.0383 46 21.5333 46H34.6C35.0951 46 35.5699 46.1967 35.9199 46.5467C36.27 46.8968 36.4667 47.3716 36.4667 47.8667C36.4667 48.3617 36.27 48.8365 35.9199 49.1866C35.5699 49.5367 35.0951 49.7333 34.6 49.7333H21.5333C21.0383 49.7333 20.5635 49.5367 20.2134 49.1866C19.8633 48.8365 19.6667 48.3617 19.6667 47.8667ZM15.9333 25.4667C15.9333 26.2093 15.6383 26.9215 15.1132 27.4466C14.5881 27.9717 13.8759 28.2667 13.1333 28.2667C12.3907 28.2667 11.6785 27.9717 11.1534 27.4466C10.6283 26.9215 10.3333 26.2093 10.3333 25.4667C10.3333 24.7241 10.6283 24.0119 11.1534 23.4868C11.6785 22.9617 12.3907 22.6667 13.1333 22.6667C13.8759 22.6667 14.5881 22.9617 15.1132 23.4868C15.6383 24.0119 15.9333 24.7241 15.9333 25.4667ZM15.9333 36.6667C15.9333 37.4093 15.6383 38.1215 15.1132 38.6466C14.5881 39.1717 13.8759 39.4667 13.1333 39.4667C12.3907 39.4667 11.6785 39.1717 11.1534 38.6466C10.6283 38.1215 10.3333 37.4093 10.3333 36.6667C10.3333 35.9241 10.6283 35.2119 11.1534 34.6868C11.6785 34.1617 12.3907 33.8667 13.1333 33.8667C13.8759 33.8667 14.5881 34.1617 15.1132 34.6868C15.6383 35.2119 15.9333 35.9241 15.9333 36.6667ZM13.1333 50.6667C13.8759 50.6667 14.5881 50.3717 15.1132 49.8466C15.6383 49.3215 15.9333 48.6093 15.9333 47.8667C15.9333 47.1241 15.6383 46.4119 15.1132 45.8868C14.5881 45.3617 13.8759 45.0667 13.1333 45.0667C12.3907 45.0667 11.6785 45.3617 11.1534 45.8868C10.6283 46.4119 10.3333 47.1241 10.3333 47.8667C10.3333 48.6093 10.6283 49.3215 11.1534 49.8466C11.6785 50.3717 12.3907 50.6667 13.1333 50.6667ZM12.5173 4.93335C12.9035 3.84105 13.619 2.89543 14.5651 2.22678C15.5112 1.55814 16.6415 1.19941 17.8 1.20001H29C30.1586 1.19941 31.2888 1.55814 32.2349 2.22678C33.181 2.89543 33.8965 3.84105 34.2827 4.93335H40.2C41.6852 4.93335 43.1096 5.52334 44.1598 6.57355C45.21 7.62375 45.8 9.04813 45.8 10.5333V55.3333C45.8 56.8186 45.21 58.2429 44.1598 59.2931C43.1096 60.3433 41.6852 60.9333 40.2 60.9333H6.6C5.11479 60.9333 3.69041 60.3433 2.6402 59.2931C1.59 58.2429 1 56.8186 1 55.3333V10.5333C1 9.04813 1.59 7.62375 2.6402 6.57355C3.69041 5.52334 5.11479 4.93335 6.6 4.93335H12.5173ZM17.8 4.93335C17.3049 4.93335 16.8301 5.13001 16.4801 5.48008C16.13 5.83015 15.9333 6.30494 15.9333 6.80001C15.9333 7.29508 16.13 7.76988 16.4801 8.11995C16.8301 8.47001 17.3049 8.66668 17.8 8.66668H29C29.4951 8.66668 29.9699 8.47001 30.3199 8.11995C30.67 7.76988 30.8667 7.29508 30.8667 6.80001C30.8667 6.30494 30.67 5.83015 30.3199 5.48008C29.9699 5.13001 29.4951 4.93335 29 4.93335H17.8ZM12.5173 8.66668H6.6C6.10493 8.66668 5.63014 8.86335 5.28007 9.21341C4.93 9.56348 4.73333 10.0383 4.73333 10.5333V55.3333C4.73333 55.8284 4.93 56.3032 5.28007 56.6533C5.63014 57.0033 6.10493 57.2 6.6 57.2H40.2C40.6951 57.2 41.1699 57.0033 41.5199 56.6533C41.87 56.3032 42.0667 55.8284 42.0667 55.3333V10.5333C42.0667 10.0383 41.87 9.56348 41.5199 9.21341C41.1699 8.86335 40.6951 8.66668 40.2 8.66668H34.2827C33.8965 9.75897 33.181 10.7046 32.2349 11.3732C31.2888 12.0419 30.1586 12.4006 29 12.4H17.8C16.6415 12.4006 15.5112 12.0419 14.5651 11.3732C13.619 10.7046 12.9035 9.75897 12.5173 8.66668Z" stroke="white" stroke-width="2" mask="url(#path-1-outside-1)"/>
</svg>
