<svg width="41" height="41" viewBox="0 0 41 41" fill="none" xmlns="http://www.w3.org/2000/svg">
<path d="M20.4427 0.51416C9.43754 0.51416 0.51416 9.43753 0.51416 20.4427C0.51416 31.4479 9.43754 40.3713 20.4427 40.3713C31.4479 40.3713 40.3713 31.4479 40.3713 20.4427C40.3713 9.43753 31.4479 0.51416 20.4427 0.51416ZM28.2941 26.5681L27.0218 28.3029C26.9942 28.3407 26.9593 28.3727 26.9192 28.3969C26.8792 28.4212 26.8347 28.4373 26.7884 28.4443C26.7421 28.4513 26.6949 28.4492 26.6495 28.4379C26.604 28.4266 26.5613 28.4064 26.5236 28.3786L19.1661 23.0139C19.1202 22.981 19.083 22.9375 19.0574 22.8872C19.0319 22.8369 19.0188 22.7812 19.0193 22.7247V10.4784C19.0193 10.2827 19.1794 10.1226 19.3751 10.1226H21.5148C21.7105 10.1226 21.8707 10.2827 21.8707 10.4784V21.4881L28.214 26.0743C28.3741 26.1855 28.4097 26.408 28.2941 26.5681Z" fill="white"/>
</svg>
