<svg width="56" height="61" viewBox="0 0 56 61" fill="none" xmlns="http://www.w3.org/2000/svg">
<path d="M6.41667 0.166565C3.01575 0.166565 0.25 2.93232 0.25 6.33323V43.3332C0.25 46.7342 3.01575 49.4999 6.41667 49.4999H17.4735L28 60.0264L38.5265 49.4999H49.5833C52.9842 49.4999 55.75 46.7342 55.75 43.3332V6.33323C55.75 2.93232 52.9842 0.166565 49.5833 0.166565H6.41667ZM49.5833 43.3332H35.9735L28 51.3067L20.0265 43.3332H6.41667V6.33323H49.5833V43.3332Z" fill="white"/>
<path d="M12.5833 15.5834H43.4166V21.75H12.5833V15.5834ZM12.5833 27.9167H34.1666V34.0834H12.5833V27.9167Z" fill="white"/>
</svg>
