<svg width="58" height="52" viewBox="0 0 58 52" fill="none" xmlns="http://www.w3.org/2000/svg">
<path d="M53.8538 17.7755L49.9778 6.14467C49.4156 4.4517 48.3341 2.97898 46.887 1.93577C45.4399 0.892558 43.7009 0.331915 41.917 0.333499H16.0827C14.2988 0.331915 12.5597 0.892558 11.1127 1.93577C9.66561 2.97898 8.58411 4.4517 8.02184 6.14467L4.14584 17.7755C3.11624 18.2075 2.23696 18.9337 1.61806 19.863C0.999172 20.7923 0.668173 21.8836 0.666504 23.0002V37.1668C0.666504 39.3003 1.865 41.1392 3.61034 42.1053C3.5735 42.2923 3.49984 42.4623 3.49984 42.6578V48.5002C3.49984 49.2516 3.79835 49.9723 4.3297 50.5036C4.86105 51.035 5.58172 51.3335 6.33317 51.3335H9.1665C9.91795 51.3335 10.6386 51.035 11.17 50.5036C11.7013 49.9723 11.9998 49.2516 11.9998 48.5002V42.8335H45.9998V48.5002C45.9998 49.2516 46.2983 49.9723 46.8297 50.5036C47.3611 51.035 48.0817 51.3335 48.8332 51.3335H51.6665C52.418 51.3335 53.1386 51.035 53.67 50.5036C54.2013 49.9723 54.4998 49.2516 54.4998 48.5002V42.6578C54.4998 42.4623 54.4262 42.2895 54.3893 42.1053C55.2773 41.6212 56.019 40.9075 56.5368 40.0388C57.0547 39.1701 57.3297 38.1782 57.3332 37.1668V23.0002C57.3332 20.6513 55.8938 18.634 53.8538 17.7755ZM6.33317 37.1668V23.0002H51.6665L51.6722 37.1668H6.33317ZM16.0827 6.00017H41.9142C43.1353 6.00017 44.2177 6.7765 44.603 7.93817L47.7367 17.3335H10.263L13.3938 7.93817C13.5818 7.37375 13.9427 6.88282 14.4253 6.53498C14.9079 6.18714 15.4878 6.00002 16.0827 6.00017Z" fill="white"/>
<path d="M13.4165 34.3335C15.7637 34.3335 17.6665 32.4307 17.6665 30.0835C17.6665 27.7363 15.7637 25.8335 13.4165 25.8335C11.0693 25.8335 9.1665 27.7363 9.1665 30.0835C9.1665 32.4307 11.0693 34.3335 13.4165 34.3335Z" fill="white"/>
<path d="M44.5835 34.3335C46.9307 34.3335 48.8335 32.4307 48.8335 30.0835C48.8335 27.7363 46.9307 25.8335 44.5835 25.8335C42.2363 25.8335 40.3335 27.7363 40.3335 30.0835C40.3335 32.4307 42.2363 34.3335 44.5835 34.3335Z" fill="white"/>
</svg>
