<svg width="53" height="50" viewBox="0 0 53 50" fill="none" xmlns="http://www.w3.org/2000/svg">
<path d="M43.7868 39.3067L25.0135 1.76C23.8401 -0.586667 20.6135 -0.586667 19.4401 1.76L0.373472 39.3067C-0.799862 41.36 0.960139 44 3.30681 44H40.8535C43.2001 44 44.6668 41.36 43.7868 39.3067ZM22.0801 38.1333C19.7335 38.1333 17.6801 36.08 17.6801 33.7333C17.6801 31.3867 19.4401 29.3333 22.0801 29.3333C24.7201 29.3333 26.4801 31.3867 26.4801 33.7333C26.4801 36.3733 24.4268 38.1333 22.0801 38.1333ZM25.0135 26.4H19.1468L17.6801 16.1333C17.6801 15.2533 18.2668 14.6667 19.1468 14.6667H25.0135C25.8935 14.6667 26.4801 15.2533 26.4801 16.1333L25.0135 26.4Z" fill="white"/>
<ellipse cx="38.9375" cy="38.75" rx="9.5625" ry="9" fill="#004483"/>
<path d="M39.5 26.5C32.7343 26.5 27.25 31.9843 27.25 38.75C27.25 45.5157 32.7343 51 39.5 51C46.2657 51 51.75 45.5157 51.75 38.75C51.75 31.9843 46.2657 26.5 39.5 26.5ZM33.8431 33.0931C35.3434 31.5929 37.3783 30.75 39.5 30.75C41.6217 30.75 43.6566 31.5929 45.1569 33.0931C46.6571 34.5934 47.5 36.6283 47.5 38.75C47.5 40.8717 46.6571 42.9066 45.1569 44.4069C43.6566 45.9071 41.6217 46.75 39.5 46.75C37.3783 46.75 35.3434 45.9071 33.8431 44.4069C32.3429 42.9066 31.5 40.8717 31.5 38.75C31.5 36.6283 32.3429 34.5934 33.8431 33.0931Z" fill="white" stroke="#004483" stroke-width="2"/>
<path d="M41.625 33.125C41.625 32.5614 41.4011 32.0209 41.0026 31.6224C40.6041 31.2239 40.0636 31 39.5 31C38.9364 31 38.3959 31.2239 37.9974 31.6224C37.5989 32.0209 37.375 32.5614 37.375 33.125V36.625H33.875C33.3114 36.625 32.7709 36.8489 32.3724 37.2474C31.9739 37.6459 31.75 38.1864 31.75 38.75C31.75 39.3136 31.9739 39.8541 32.3724 40.2526C32.7709 40.6511 33.3114 40.875 33.875 40.875H37.375V44.375C37.375 44.9386 37.5989 45.4791 37.9974 45.8776C38.3959 46.2761 38.9364 46.5 39.5 46.5C40.0636 46.5 40.6041 46.2761 41.0026 45.8776C41.4011 45.4791 41.625 44.9386 41.625 44.375V40.875H45.125C45.6886 40.875 46.2291 40.6511 46.6276 40.2526C47.0261 39.8541 47.25 39.3136 47.25 38.75C47.25 38.1864 47.0261 37.6459 46.6276 37.2474C46.2291 36.8489 45.6886 36.625 45.125 36.625H41.625V33.125Z" fill="white" stroke="#004483" stroke-width="2"/>
</svg>
