<svg width="32" height="25" viewBox="0 0 32 25" fill="none" xmlns="http://www.w3.org/2000/svg">
<path fill-rule="evenodd" clip-rule="evenodd" d="M30.8643 13.422L27.8322 10.2382C27.6314 10.0472 27.3609 9.94019 27.079 9.94019C26.7972 9.94019 26.5267 10.0472 26.3259 10.2382L23.2899 13.422C23.1908 13.5167 23.1121 13.6294 23.0585 13.7536C23.0048 13.8778 22.9772 14.0111 22.9772 14.1457C22.9772 14.2804 23.0048 14.4136 23.0585 14.5379C23.1121 14.6621 23.1908 14.7748 23.2899 14.8695H25.8017C25.3319 16.5745 24.4043 18.1295 23.1129 19.3773C21.8214 20.6251 20.2117 21.5215 18.4466 21.9757C16.3839 22.497 14.2054 22.3956 12.204 21.6853C10.2027 20.975 8.47451 19.6898 7.25186 18.0026L5.13403 19.4107C6.65961 21.516 8.81611 23.1195 11.3134 24.0055C13.8108 24.8914 16.5291 25.0174 19.1027 24.3664C21.4174 23.7736 23.5163 22.572 25.1658 20.8953C26.8153 19.2185 27.9507 17.1325 28.4456 14.8695H30.8624C30.9614 14.7748 31.0399 14.6622 31.0936 14.538C31.1473 14.4139 31.1751 14.2807 31.1753 14.1461C31.1754 14.0116 31.1481 13.8783 31.0947 13.7541C31.0413 13.6298 30.963 13.5169 30.8643 13.422Z" fill="#004483"/>
<path fill-rule="evenodd" clip-rule="evenodd" d="M8.88829 11.759C8.98736 11.6643 9.06601 11.5516 9.11969 11.4273C9.17336 11.3031 9.201 11.1698 9.201 11.0352C9.201 10.9006 9.17336 10.7673 9.11969 10.6431C9.06601 10.5189 8.98736 10.4061 8.88829 10.3115H6.06C6.54116 8.62794 7.46995 7.09531 8.7541 5.8658C10.0382 4.63628 11.6331 3.75266 13.3802 3.30271C15.443 2.78094 17.6218 2.88242 19.6231 3.59348C21.6244 4.30455 23.3519 5.59103 24.573 7.27959L26.6928 5.86959C25.1667 3.76318 23.0094 2.15873 20.5111 1.27209C18.0127 0.385455 15.2931 0.259165 12.7182 0.910213C10.4214 1.50029 8.33709 2.68962 6.69358 4.34788C5.05007 6.00614 3.91079 8.06935 3.40058 10.3115H0.581997C0.482926 10.4061 0.404277 10.5189 0.350601 10.6431C0.296925 10.7673 0.269287 10.9006 0.269287 11.0352C0.269287 11.1698 0.296925 11.3031 0.350601 11.4273C0.404277 11.5516 0.482926 11.6643 0.581997 11.759L3.76164 14.8283C3.96246 15.0193 4.23299 15.1264 4.51482 15.1264C4.79665 15.1264 5.06718 15.0193 5.268 14.8283L8.88829 11.759Z" fill="#004483"/>
</svg>
