<svg width="28" height="31" viewBox="0 0 28 31" fill="none" xmlns="http://www.w3.org/2000/svg">
<path d="M23.6252 1.93786C22.929 1.93786 22.2613 2.24406 21.7691 2.78909C21.2768 3.33411 21.0002 4.07333 21.0002 4.84411C21.0002 5.6149 21.2768 6.35412 21.7691 6.89914C22.2613 7.44417 22.929 7.75036 23.6252 7.75036C24.3214 7.75036 24.9891 7.44417 25.4814 6.89914C25.9737 6.35412 26.2502 5.6149 26.2502 4.84411C26.2502 4.07333 25.9737 3.33411 25.4814 2.78909C24.9891 2.24406 24.3214 1.93786 23.6252 1.93786ZM19.2502 4.84411C19.2501 3.70764 19.6109 2.6073 20.2695 1.73561C20.9282 0.86392 21.8427 0.276387 22.8531 0.0758049C23.8634 -0.124777 24.9053 0.0743639 25.7965 0.638388C26.6877 1.20241 27.3713 2.0954 27.7278 3.16112C28.0844 4.22684 28.0911 5.39743 27.7468 6.46807C27.4025 7.53872 26.7292 8.44125 25.8446 9.01777C24.96 9.59428 23.9204 9.80806 22.9078 9.6217C21.8952 9.43535 20.974 8.86072 20.3055 7.99836L8.54897 14.0434C8.81924 14.9917 8.81924 16.0091 8.54897 16.9574L20.3055 23.0024C21.0122 22.0924 21.9989 21.5053 23.0743 21.3548C24.1497 21.2044 25.2373 21.5013 26.1263 22.188C27.0153 22.8748 27.6423 23.9024 27.8859 25.0719C28.1295 26.2413 27.9723 27.4692 27.4447 28.5176C26.9172 29.566 26.0569 30.3603 25.0306 30.7465C24.0043 31.1327 22.885 31.0833 21.8897 30.6078C20.8944 30.1324 20.0939 29.2649 19.6435 28.1733C19.193 27.0817 19.1246 25.8439 19.4515 24.6996L7.69497 18.6546C7.11298 19.4055 6.33723 19.9411 5.47208 20.1893C4.60693 20.4375 3.69388 20.3863 2.85576 20.0428C2.01764 19.6992 1.29465 19.0798 0.784058 18.2677C0.273463 17.4556 -0.000244141 16.4898 -0.000244141 15.5004C-0.000244141 14.5109 0.273463 13.5452 0.784058 12.7331C1.29465 11.921 2.01764 11.3015 2.85576 10.9579C3.69388 10.6144 4.60693 10.5633 5.47208 10.8114C6.33723 11.0596 7.11298 11.5952 7.69497 12.3461L19.4515 6.30112C19.3176 5.82966 19.2498 5.3383 19.2502 4.84411ZM4.37522 12.5941C3.67903 12.5941 3.01135 12.9003 2.51906 13.4453C2.02678 13.9904 1.75022 14.7296 1.75022 15.5004C1.75022 16.2711 2.02678 17.0104 2.51906 17.5554C3.01135 18.1004 3.67903 18.4066 4.37522 18.4066C5.07141 18.4066 5.73909 18.1004 6.23138 17.5554C6.72366 17.0104 7.00022 16.2711 7.00022 15.5004C7.00022 14.7296 6.72366 13.9904 6.23138 13.4453C5.73909 12.9003 5.07141 12.5941 4.37522 12.5941ZM23.6252 23.2504C22.929 23.2504 22.2613 23.5566 21.7691 24.1016C21.2768 24.6466 21.0002 25.3858 21.0002 26.1566C21.0002 26.9274 21.2768 27.6666 21.7691 28.2116C22.2613 28.7567 22.929 29.0629 23.6252 29.0629C24.3214 29.0629 24.9891 28.7567 25.4814 28.2116C25.9737 27.6666 26.2502 26.9274 26.2502 26.1566C26.2502 25.3858 25.9737 24.6466 25.4814 24.1016C24.9891 23.5566 24.3214 23.2504 23.6252 23.2504Z" fill="white"/>
</svg>
