<svg width="76" height="76" viewBox="0 0 76 76" fill="none" xmlns="http://www.w3.org/2000/svg">
<g filter="url(#filter0_d)">
<path d="M55.8472 0.35437C57.8002 0.35437 59.6732 1.1302 61.0542 2.51118C62.4352 3.89216 63.211 5.76517 63.211 7.71818V58.4466C63.211 60.3996 62.4352 62.2726 61.0542 63.6536C59.6732 65.0346 57.8002 65.8104 55.8472 65.8104H37.6537C41.0411 62.2843 43.1104 57.6988 43.5133 52.8258C43.9163 47.9529 42.6282 43.0898 39.866 39.0552C37.1037 35.0205 33.0359 32.0606 28.3472 30.6735C23.6584 29.2865 18.6349 29.5569 14.1222 31.4395V7.71818C14.1222 5.76517 14.8981 3.89216 16.2791 2.51118C17.66 1.1302 19.533 0.35437 21.486 0.35437H55.8472ZM49.318 11.7994H28.0317C27.438 11.7995 26.8645 12.0148 26.4174 12.4053C25.9703 12.7958 25.6799 13.3352 25.6 13.9234L25.5771 14.254V19.1763C25.5771 20.4199 26.5033 21.4443 27.7011 21.608L28.0317 21.6309H49.3147C49.9079 21.6308 50.4809 21.416 50.928 21.0262C51.375 20.6363 51.6657 20.0977 51.7464 19.5101L51.7693 19.1763V14.254C51.7693 13.603 51.5107 12.9786 51.0504 12.5183C50.59 12.058 49.9657 11.7994 49.3147 11.7994H49.318ZM66.4871 42.9074H68.9417C69.5349 42.9074 70.1079 43.1222 70.555 43.5121C71.002 43.9019 71.2927 44.4405 71.3734 45.0281L71.3963 45.362V50.2646C71.3963 50.8578 71.1815 51.4309 70.7916 51.8779C70.4017 52.3249 69.8632 52.6156 69.2755 52.6963L68.9417 52.7192H66.4871V42.9074ZM66.4871 29.8161H68.9417C69.5349 29.8162 70.1079 30.031 70.555 30.4208C71.002 30.8107 71.2927 31.3493 71.3734 31.9369L71.3963 32.2707V37.1734C71.3963 37.7666 71.1815 38.3396 70.7916 38.7867C70.4017 39.2337 69.8632 39.5244 69.2755 39.6051L68.9417 39.628H66.4871V29.8161ZM66.4871 16.7249H68.9417C69.5349 16.725 70.1079 16.9398 70.555 17.3296C71.002 17.7195 71.2927 18.2581 71.3734 18.8457L71.3963 19.1795V24.0822C71.3963 24.6753 71.1815 25.2484 70.7916 25.6955C70.4017 26.1425 69.8632 26.4332 69.2755 26.5139L68.9417 26.5368H66.4871V16.7249ZM40.3047 51.0828C40.3047 48.719 39.8391 46.3783 38.9345 44.1944C38.0299 42.0104 36.704 40.0261 35.0325 38.3546C33.361 36.6831 31.3766 35.3572 29.1927 34.4526C27.0088 33.548 24.6681 33.0824 22.3043 33.0824C19.9404 33.0824 17.5997 33.548 15.4158 34.4526C13.2319 35.3572 11.2475 36.6831 9.57603 38.3546C7.90454 40.0261 6.57864 42.0104 5.67403 44.1944C4.76943 46.3783 4.30383 48.719 4.30383 51.0828C4.30383 55.8568 6.2003 60.4353 9.57603 63.811C12.9518 67.1868 17.5302 69.0832 22.3043 69.0832C27.0783 69.0832 31.6567 67.1868 35.0325 63.811C38.4082 60.4353 40.3047 55.8568 40.3047 51.0828ZM23.9407 52.7192L23.9439 60.911C23.9439 61.345 23.7715 61.7613 23.4646 62.0682C23.1577 62.375 22.7415 62.5474 22.3075 62.5474C21.8735 62.5474 21.4573 62.375 21.1504 62.0682C20.8435 61.7613 20.6711 61.345 20.6711 60.911V52.7192H12.4728C12.0387 52.7192 11.6225 52.5468 11.3156 52.2399C11.0088 51.933 10.8363 51.5168 10.8363 51.0828C10.8363 50.6488 11.0088 50.2326 11.3156 49.9257C11.6225 49.6188 12.0387 49.4464 12.4728 49.4464H20.6679V41.2644C20.6679 40.8304 20.8403 40.4142 21.1471 40.1073C21.454 39.8004 21.8703 39.628 22.3043 39.628C22.7383 39.628 23.1545 39.8004 23.4614 40.1073C23.7682 40.4142 23.9407 40.8304 23.9407 41.2644V49.4464H32.1128C32.5468 49.4464 32.9631 49.6188 33.27 49.9257C33.5768 50.2326 33.7492 50.6488 33.7492 51.0828C33.7492 51.5168 33.5768 51.933 33.27 52.2399C32.9631 52.5468 32.5468 52.7192 32.1128 52.7192H23.9407Z" fill="#01FFCD"/>
</g>
<defs>
<filter id="filter0_d" x="0.303833" y="0.35437" width="75.0925" height="77.7289" filterUnits="userSpaceOnUse" color-interpolation-filters="sRGB">
<feFlood flood-opacity="0" result="BackgroundImageFix"/>
<feColorMatrix in="SourceAlpha" type="matrix" values="0 0 0 0 0 0 0 0 0 0 0 0 0 0 0 0 0 0 127 0" result="hardAlpha"/>
<feOffset dy="5"/>
<feGaussianBlur stdDeviation="2"/>
<feComposite in2="hardAlpha" operator="out"/>
<feColorMatrix type="matrix" values="0 0 0 0 0 0 0 0 0 0 0 0 0 0 0 0 0 0 0.3 0"/>
<feBlend mode="normal" in2="BackgroundImageFix" result="effect1_dropShadow"/>
<feBlend mode="normal" in="SourceGraphic" in2="effect1_dropShadow" result="shape"/>
</filter>
</defs>
</svg>
