<svg width="68" height="70" viewBox="0 0 68 70" fill="none" xmlns="http://www.w3.org/2000/svg">
<path d="M51.8472 0.35437C53.8002 0.35437 55.6732 1.1302 57.0542 2.51118C58.4352 3.89216 59.211 5.76517 59.211 7.71818V58.4466C59.211 60.3996 58.4352 62.2726 57.0542 63.6536C55.6732 65.0346 53.8002 65.8104 51.8472 65.8104H33.6537C37.0411 62.2843 39.1104 57.6988 39.5133 52.8258C39.9163 47.9529 38.6282 43.0898 35.866 39.0552C33.1037 35.0205 29.0359 32.0606 24.3472 30.6735C19.6584 29.2865 14.6349 29.5569 10.1222 31.4395V7.71818C10.1222 5.76517 10.8981 3.89216 12.2791 2.51118C13.66 1.1302 15.533 0.35437 17.486 0.35437H51.8472ZM45.318 11.7994H24.0317C23.438 11.7995 22.8645 12.0148 22.4174 12.4053C21.9703 12.7958 21.6799 13.3352 21.6 13.9234L21.5771 14.254V19.1763C21.5771 20.4199 22.5033 21.4443 23.7011 21.608L24.0317 21.6309H45.3147C45.9079 21.6308 46.4809 21.416 46.928 21.0262C47.375 20.6363 47.6657 20.0977 47.7464 19.5101L47.7693 19.1763V14.254C47.7693 13.603 47.5107 12.9786 47.0504 12.5183C46.59 12.058 45.9657 11.7994 45.3147 11.7994H45.318ZM62.4871 42.9074H64.9417C65.5349 42.9074 66.1079 43.1222 66.555 43.5121C67.002 43.9019 67.2927 44.4405 67.3734 45.0281L67.3963 45.362V50.2646C67.3963 50.8578 67.1815 51.4309 66.7916 51.8779C66.4017 52.3249 65.8632 52.6156 65.2755 52.6963L64.9417 52.7192H62.4871V42.9074ZM62.4871 29.8161H64.9417C65.5349 29.8162 66.1079 30.031 66.555 30.4208C67.002 30.8107 67.2927 31.3493 67.3734 31.9369L67.3963 32.2707V37.1734C67.3963 37.7666 67.1815 38.3396 66.7916 38.7867C66.4017 39.2337 65.8632 39.5244 65.2755 39.6051L64.9417 39.628H62.4871V29.8161ZM62.4871 16.7249H64.9417C65.5349 16.725 66.1079 16.9398 66.555 17.3296C67.002 17.7195 67.2927 18.2581 67.3734 18.8457L67.3963 19.1795V24.0822C67.3963 24.6753 67.1815 25.2484 66.7916 25.6955C66.4017 26.1425 65.8632 26.4332 65.2755 26.5139L64.9417 26.5368H62.4871V16.7249ZM36.3047 51.0828C36.3047 48.719 35.8391 46.3783 34.9345 44.1944C34.0299 42.0104 32.704 40.0261 31.0325 38.3546C29.361 36.6831 27.3766 35.3572 25.1927 34.4526C23.0088 33.548 20.6681 33.0824 18.3043 33.0824C15.9404 33.0824 13.5997 33.548 11.4158 34.4526C9.23188 35.3572 7.24753 36.6831 5.57603 38.3546C3.90454 40.0261 2.57864 42.0104 1.67403 44.1944C0.769428 46.3783 0.303833 48.719 0.303833 51.0828C0.303833 55.8568 2.2003 60.4353 5.57603 63.811C8.95177 67.1868 13.5302 69.0832 18.3043 69.0832C23.0783 69.0832 27.6567 67.1868 31.0325 63.811C34.4082 60.4353 36.3047 55.8568 36.3047 51.0828ZM19.9407 52.7192L19.9439 60.911C19.9439 61.345 19.7715 61.7613 19.4646 62.0682C19.1577 62.375 18.7415 62.5474 18.3075 62.5474C17.8735 62.5474 17.4573 62.375 17.1504 62.0682C16.8435 61.7613 16.6711 61.345 16.6711 60.911V52.7192H8.47275C8.03875 52.7192 7.62252 52.5468 7.31564 52.2399C7.00875 51.933 6.83635 51.5168 6.83635 51.0828C6.83635 50.6488 7.00875 50.2326 7.31564 49.9257C7.62252 49.6188 8.03875 49.4464 8.47275 49.4464H16.6679V41.2644C16.6679 40.8304 16.8403 40.4142 17.1471 40.1073C17.454 39.8004 17.8703 39.628 18.3043 39.628C18.7383 39.628 19.1545 39.8004 19.4614 40.1073C19.7682 40.4142 19.9407 40.8304 19.9407 41.2644V49.4464H28.1128C28.5468 49.4464 28.9631 49.6188 29.27 49.9257C29.5768 50.2326 29.7492 50.6488 29.7492 51.0828C29.7492 51.5168 29.5768 51.933 29.27 52.2399C28.9631 52.5468 28.5468 52.7192 28.1128 52.7192H19.9407Z" fill="white"/>
</svg>
