<svg width="361" height="30" viewBox="0 0 361 30" fill="none" xmlns="http://www.w3.org/2000/svg">
<path d="M13.6 0.839998C6 0.839998 0.08 6.08 0.08 15.36C0.08 24.4 5.68 29.56 13.24 29.56C20.24 29.56 25 25.92 25.64 19.68L25.68 19.28H19.4L19.32 19.68C18.68 22.96 16.72 24.92 13.48 24.92C9.72 24.92 6.68 21.92 6.68 15C6.68 8.88 9.52 5.48 13.52 5.48C16.84 5.48 18.8 7.2 19.44 10.4L19.52 10.8H25.8L25.76 10.4C25.2 4.96 21.24 0.839998 13.6 0.839998ZM67.2644 24.08H53.0644V17.6H65.9444V12.72H53.0644V6.28H66.8644V1.4H46.7844V29H67.2644V24.08ZM113.423 29V1.4H107.183V13.68C107.183 15.72 107.223 18.84 107.383 21.72L96.2634 1.4H88.2234V29H94.5034V17C94.5034 15 94.4634 12.16 94.2634 9.24L105.063 29H113.423ZM157.639 6.28V1.4H132.999V6.28H142.199V29H148.439V6.28H157.639ZM183.397 29V1.4H177.117V29H183.397ZM230.788 29V1.4H224.548V13.68C224.548 15.72 224.588 18.84 224.748 21.72L213.628 1.4H205.588V29H211.868V17C211.868 15 211.828 12.16 211.628 9.24L222.428 29H230.788ZM273.483 24.08H259.283V17.6H272.163V12.72H259.283V6.28H273.083V1.4H253.003V29H273.483V24.08ZM314.922 23.72H300.722V1.4H294.442V29H314.922V23.72ZM350.692 21.2L353.212 29H360.012L350.172 1.4H342.412L332.452 29H339.132L341.692 21.2H350.692ZM346.212 6.84L349.132 16.28H343.252L346.212 6.84Z" fill="#001937"/>
</svg>
