<svg width="100" height="86" viewBox="0 0 100 86" fill="none" xmlns="http://www.w3.org/2000/svg">
<path d="M68.75 17.6673C68.75 15.9566 69.5402 14.3161 70.9467 13.1064C72.3532 11.8968 74.2609 11.2173 76.25 11.2173C78.2391 11.2173 80.1468 11.8968 81.5533 13.1064C82.9598 14.3161 83.75 15.9566 83.75 17.6673V64.9673C83.75 66.6779 82.9598 68.3185 81.5533 69.5281C80.1468 70.7377 78.2391 71.4173 76.25 71.4173C74.2609 71.4173 72.3532 70.7377 70.9467 69.5281C69.5402 68.3185 68.75 66.6779 68.75 64.9673V17.6673ZM63.75 20.7805C53.415 24.8655 41.055 27.1488 28.75 27.9013V54.7204C30.5662 54.8085 32.3799 54.9303 34.19 55.0859C44.455 55.9631 54.38 57.9583 63.75 61.7939V20.7805ZM23.75 54.4968V28.1335C20.35 28.2496 16.755 28.3184 13.71 28.3614C11.0617 28.3929 8.53378 29.3179 6.67082 30.9369C4.80785 32.556 3.75892 34.7395 3.75 37.0173L3.75 45.6173C3.75 50.3731 8.23 54.2001 13.72 54.256C14.5467 54.2649 15.3734 54.2763 16.2 54.2904C18.7175 54.3336 21.2344 54.4024 23.75 54.4968ZM30.7 59.1451C32.125 59.2354 33.545 59.3472 34.95 59.4805L36.215 66.7475C36.3527 67.3694 36.3289 68.0097 36.1456 68.6228C35.9622 69.2359 35.6236 69.8066 35.1541 70.2942C34.6846 70.7818 34.0957 71.1742 33.4295 71.4434C32.7633 71.7126 32.0361 71.852 31.3 71.8516H28.56C27.5881 71.8515 26.6373 71.6079 25.8239 71.1504C25.0105 70.693 24.3697 70.0416 23.98 69.2759L17.41 58.6119C20.2313 58.6724 23.0515 58.7642 25.87 58.8871C27.505 58.9602 29.12 59.0462 30.7 59.1451Z" fill="white"/>
<g clip-path="url(#clip0)">
<ellipse cx="78.75" cy="68.551" rx="13.75" ry="13.7101" fill="#007BB1"/>
<path d="M78.0571 52.5943L78.0469 52.5942L78.0367 52.5943C73.0552 52.6451 68.2681 54.3408 64.7035 57.3565C61.1342 60.3763 59.0622 64.4952 59.0001 68.8481L58.9999 68.8624L59.0001 68.8766C59.0622 73.2295 61.1342 77.3484 64.7035 80.3682C68.2681 83.3839 73.0552 85.0796 78.0367 85.1304L78.0469 85.1305L78.0571 85.1304C83.0386 85.0796 87.8256 83.3839 91.3902 80.3682C94.9595 77.3484 97.0316 73.2295 97.0936 68.8766L97.0939 68.8624L97.0936 68.8481C97.0316 64.4952 94.9595 60.3763 91.3902 57.3565C87.8256 54.3408 83.0386 52.6451 78.0571 52.5943ZM79.3359 68.7718H87.3594V68.9529H79.3359H78.3359V69.9529V76.587H77.7578V69.9529V68.9529H76.7578H68.7344V68.7718H76.7578H77.7578V67.7718V61.1377H78.3359V67.7718V68.7718H79.3359Z" fill="white" stroke="#007BB1" stroke-width="2"/>
</g>
<defs>
<clipPath id="clip0">
<rect width="41.25" height="34.8985" fill="white" transform="translate(56.25 51.1016)"/>
</clipPath>
</defs>
</svg>
