<svg width="80" height="69" viewBox="0 0 80 69" fill="none" xmlns="http://www.w3.org/2000/svg">
<path d="M55 14.175C55 12.8025 55.6321 11.4862 56.7574 10.5157C57.8826 9.54522 59.4087 9 61 9C62.5913 9 64.1174 9.54522 65.2426 10.5157C66.3679 11.4862 67 12.8025 67 14.175V52.125C67 53.4975 66.3679 54.8138 65.2426 55.7843C64.1174 56.7548 62.5913 57.3 61 57.3C59.4087 57.3 57.8826 56.7548 56.7574 55.7843C55.6321 54.8138 55 53.4975 55 52.125V14.175ZM51 16.6728C42.732 19.9503 32.844 21.7823 23 22.386V43.9036C24.4529 43.9743 25.904 44.0721 27.352 44.1969C35.564 44.9007 43.504 46.5015 51 49.5789V16.6728ZM19 43.7243V22.5723C16.28 22.6655 13.404 22.7206 10.968 22.7551C8.84936 22.7805 6.82703 23.5226 5.33665 24.8216C3.84628 26.1206 3.00714 27.8725 3 29.7V36.6C3 40.4157 6.584 43.4862 10.976 43.5311C11.6374 43.5382 12.2987 43.5474 12.96 43.5587C14.974 43.5934 16.9875 43.6486 19 43.7243ZM24.56 47.4537C25.7 47.5261 26.836 47.6159 27.96 47.7228L28.972 53.5533C29.0821 54.0523 29.0632 54.566 28.9164 55.0579C28.7697 55.5498 28.4989 56.0077 28.1233 56.3989C27.7477 56.7901 27.2766 57.105 26.7436 57.321C26.2106 57.5369 25.6289 57.6488 25.04 57.6484H22.848C22.0705 57.6484 21.3098 57.4529 20.6591 57.0859C20.0084 56.7189 19.4958 56.1962 19.184 55.5819L13.928 47.0259C16.185 47.0745 18.4412 47.1481 20.696 47.2467C22.004 47.3054 23.296 47.3744 24.56 47.4537Z" fill="#01FFCD"/>
<g clip-path="url(#clip0)">
<circle cx="63" cy="55" r="11" fill="#007BB1"/>
<path d="M62.4477 42.0001L62.4375 41.9999L62.4273 42.0001C58.3987 42.0413 54.5227 43.4164 51.6326 45.8686C48.7378 48.3248 47.0506 51.6815 47.0001 55.2358L46.9999 55.25L47.0001 55.2642C47.0506 58.8185 48.7378 62.1752 51.6326 64.6314C54.5227 67.0836 58.3987 68.4587 62.4273 68.4999L62.4375 68.5001L62.4477 68.4999C66.4763 68.4587 70.3523 67.0836 73.2424 64.6314C76.1372 62.1752 77.8244 58.8185 77.8749 55.2642L77.8751 55.25L77.8749 55.2358C77.8244 51.6815 76.1372 48.3248 73.2424 45.8686C70.3523 43.4164 66.4763 42.0413 62.4477 42.0001ZM62.4688 55.125V55.375V56.125V61.25H62.4062V56.125V55.375V55.125V54.375V49.25H62.4688V54.375V55.125Z" fill="#01FFCD" stroke="#004483" stroke-width="2"/>
</g>
<defs>
<clipPath id="clip0">
<rect width="33" height="28" fill="white" transform="translate(45 41)"/>
</clipPath>
</defs>
</svg>
