<svg width="97" height="79" viewBox="0 0 97 79" fill="none" xmlns="http://www.w3.org/2000/svg">
<path d="M83.2222 11.1458V59.4444H11.3485V52.0139H75.6566V11.1458H83.2222ZM68.0909 44.5833H0V0H68.0909V44.5833ZM45.3939 22.2917C45.3939 16.1243 40.3249 11.1458 34.0455 11.1458C27.766 11.1458 22.697 16.1243 22.697 22.2917C22.697 28.459 27.766 33.4375 34.0455 33.4375C40.3249 33.4375 45.3939 28.459 45.3939 22.2917Z" fill="white"/>
<path d="M78.0461 46.2104L78.0303 46.2285L78.0149 46.2469L67.4359 58.9417C67.4256 58.9541 67.4128 58.9641 67.3984 58.9713C67.384 58.9785 67.3683 58.9825 67.3522 58.9832C67.3361 58.984 67.32 58.9813 67.3051 58.9755L66.5821 60.8403L67.3051 58.9755C67.29 58.9697 67.2764 58.9608 67.265 58.9495L60.9379 52.6223C60.9196 52.6011 60.9095 52.5738 60.9098 52.5457C60.91 52.5153 60.9222 52.4862 60.9437 52.4648C60.9652 52.4433 60.9942 52.4311 61.0246 52.4308C61.0528 52.4306 61.0799 52.4406 61.1012 52.4588L65.7887 57.1485L67.3372 58.6977L68.7396 57.0152L77.8377 46.0995L77.8532 46.081L77.8681 46.0621C77.8777 46.05 77.8897 46.04 77.9032 46.0326C77.9167 46.0251 77.9316 46.0205 77.947 46.0189L77.742 44.0294L77.947 46.0189C77.9624 46.0173 77.9779 46.0188 77.9927 46.0233L78.527 44.2714L77.9927 46.0233C78.0074 46.0278 78.0212 46.0352 78.033 46.0451L79.3134 44.5087C79.5301 44.6893 79.7086 44.9115 79.8382 45.162C79.9678 45.4126 80.046 45.6866 80.0682 45.9679C80.0903 46.2491 80.056 46.532 79.9673 46.7998L78.0688 46.1706C78.0688 46.1706 78.0688 46.1706 78.0688 46.1706C78.064 46.1853 78.0562 46.1988 78.0461 46.2104ZM69.463 26.1885C55.5047 26.1885 44.1887 37.5044 44.1887 51.4628C44.1887 65.4211 55.5047 76.737 69.463 76.737C83.4213 76.737 94.7373 65.4211 94.7373 51.4628C94.7373 37.5044 83.4213 26.1885 69.463 26.1885Z" fill="white" stroke="#007BB1" stroke-width="4"/>
</svg>
