<svg width="109" height="109" viewBox="0 0 109 109" fill="none" xmlns="http://www.w3.org/2000/svg">
<g clip-path="url(#clip0)">
<path d="M79.8304 24.0757C83.0579 24.0757 86.1533 25.3578 88.4356 27.6401C90.7178 29.9223 92 33.0177 92 36.2453V42.3301H6.8125V36.2453C6.8125 33.0177 8.09466 29.9223 10.3769 27.6401C12.6592 25.3578 15.7546 24.0757 18.9821 24.0757H79.8304Z" fill="white"/>
<path d="M92 72.7543V48.415H6.8125V72.7543C6.8125 75.9819 8.09466 79.0773 10.3769 81.3596C12.6592 83.6418 15.7546 84.924 18.9821 84.924H79.8304C83.0579 84.924 86.1533 83.6418 88.4356 81.3596C90.7178 79.0773 92 75.9819 92 72.7543ZM34.1942 66.6695C35.0011 66.6695 35.7749 66.99 36.3455 67.5606C36.9161 68.1312 37.2366 68.905 37.2366 69.7119C37.2366 70.5188 36.9161 71.2927 36.3455 71.8632C35.7749 72.4338 35.0011 72.7543 34.1942 72.7543H22.0246C21.2177 72.7543 20.4438 72.4338 19.8732 71.8632C19.3027 71.2927 18.9821 70.5188 18.9821 69.7119C18.9821 68.905 19.3027 68.1312 19.8732 67.5606C20.4438 66.99 21.2177 66.6695 22.0246 66.6695H34.1942Z" fill="white"/>
<ellipse cx="85" cy="78" rx="23" ry="23" fill="#007BB1"/>
<mask id="path-4-outside-1" maskUnits="userSpaceOnUse" x="54.564" y="51.564" width="55" height="55" fill="black">
<rect fill="white" x="54.564" y="51.564" width="55" height="55"/>
<path d="M81.8973 55.564C69.0119 55.564 58.564 66.0119 58.564 78.8973C58.564 91.7827 69.0119 102.231 81.8973 102.231C94.7827 102.231 105.231 91.7827 105.231 78.8973C105.231 66.0119 94.7827 55.564 81.8973 55.564ZM91.09 86.0692L89.6004 88.1004C89.568 88.1446 89.5272 88.182 89.4803 88.2104C89.4334 88.2388 89.3814 88.2577 89.3272 88.2659C89.273 88.2742 89.2177 88.2716 89.1644 88.2584C89.1112 88.2452 89.0612 88.2216 89.0171 88.189L80.4025 81.9077C80.3488 81.8692 80.3052 81.8183 80.2753 81.7594C80.2454 81.7005 80.2301 81.6352 80.2306 81.5692V67.2306C80.2306 67.0015 80.4181 66.814 80.6473 66.814H83.1525C83.3817 66.814 83.5692 67.0015 83.5692 67.2306V80.1213L90.9963 85.491C91.1838 85.6213 91.2254 85.8817 91.09 86.0692Z"/>
</mask>
<path d="M81.8973 55.564C69.0119 55.564 58.564 66.0119 58.564 78.8973C58.564 91.7827 69.0119 102.231 81.8973 102.231C94.7827 102.231 105.231 91.7827 105.231 78.8973C105.231 66.0119 94.7827 55.564 81.8973 55.564ZM91.09 86.0692L89.6004 88.1004C89.568 88.1446 89.5272 88.182 89.4803 88.2104C89.4334 88.2388 89.3814 88.2577 89.3272 88.2659C89.273 88.2742 89.2177 88.2716 89.1644 88.2584C89.1112 88.2452 89.0612 88.2216 89.0171 88.189L80.4025 81.9077C80.3488 81.8692 80.3052 81.8183 80.2753 81.7594C80.2454 81.7005 80.2301 81.6352 80.2306 81.5692V67.2306C80.2306 67.0015 80.4181 66.814 80.6473 66.814H83.1525C83.3817 66.814 83.5692 67.0015 83.5692 67.2306V80.1213L90.9963 85.491C91.1838 85.6213 91.2254 85.8817 91.09 86.0692Z" fill="white"/>
<path d="M91.09 86.0692L94.3156 88.4346L94.3242 88.4229L94.3327 88.4111L91.09 86.0692ZM89.6004 88.1004L86.3748 85.735L86.3735 85.7367L89.6004 88.1004ZM89.0171 88.189L91.3972 84.9742L91.3855 84.9655L91.3737 84.9569L89.0171 88.189ZM80.4025 81.9077L82.7591 78.6756L82.7474 78.6671L82.7357 78.6587L80.4025 81.9077ZM80.2306 81.5692L84.2305 81.603L84.2306 81.5861V81.5692H80.2306ZM83.5692 80.1213H79.5692V82.1652L81.2255 83.3628L83.5692 80.1213ZM90.9963 85.491L88.6526 88.7326L88.6834 88.7548L88.7147 88.7765L90.9963 85.491ZM81.8973 51.564C66.8027 51.564 54.564 63.8027 54.564 78.8973H62.564C62.564 68.221 71.221 59.564 81.8973 59.564V51.564ZM54.564 78.8973C54.564 93.9918 66.8027 106.231 81.8973 106.231V98.2306C71.221 98.2306 62.564 89.5736 62.564 78.8973H54.564ZM81.8973 106.231C96.9919 106.231 109.231 93.9918 109.231 78.8973H101.231C101.231 89.5736 92.5736 98.2306 81.8973 98.2306V106.231ZM109.231 78.8973C109.231 63.8027 96.9919 51.564 81.8973 51.564V59.564C92.5736 59.564 101.231 68.221 101.231 78.8973H109.231ZM87.8644 83.7037L86.3748 85.735L92.826 90.4659L94.3156 88.4346L87.8644 83.7037ZM86.3735 85.7367C86.6526 85.3558 87.0041 85.0337 87.408 84.7891L91.5526 91.6318C92.0503 91.3303 92.4835 90.9335 92.8273 90.4642L86.3735 85.7367ZM87.408 84.7891C87.8119 84.5445 88.2601 84.3821 88.7269 84.3112L89.9274 92.2206C90.5026 92.1333 91.0549 91.9332 91.5526 91.6318L87.408 84.7891ZM88.7269 84.3112C89.1936 84.2404 89.6698 84.2624 90.1282 84.3762L88.2007 92.1405C88.7655 92.2808 89.3523 92.3079 89.9274 92.2206L88.7269 84.3112ZM90.1282 84.3762C90.5865 84.49 91.0177 84.6932 91.3972 84.9742L86.637 91.4038C87.1046 91.75 87.636 92.0004 88.2007 92.1405L90.1282 84.3762ZM91.3737 84.9569L82.7591 78.6756L78.0459 85.1398L86.6605 91.421L91.3737 84.9569ZM82.7357 78.6587C83.2025 78.9939 83.5819 79.4363 83.842 79.9486L76.7086 83.5702C77.0286 84.2003 77.4952 84.7445 78.0693 85.1567L82.7357 78.6587ZM83.842 79.9486C84.1021 80.461 84.2353 81.0283 84.2305 81.603L76.2308 81.5354C76.2248 82.2421 76.3887 82.94 76.7086 83.5702L83.842 79.9486ZM84.2306 81.5692V67.2306H76.2306V81.5692H84.2306ZM84.2306 67.2306C84.2306 69.2106 82.6273 70.814 80.6473 70.814V62.814C78.209 62.814 76.2306 64.7923 76.2306 67.2306H84.2306ZM80.6473 70.814H83.1525V62.814H80.6473V70.814ZM83.1525 70.814C81.1725 70.814 79.5692 69.2106 79.5692 67.2306H87.5692C87.5692 64.7923 85.5908 62.814 83.1525 62.814V70.814ZM79.5692 67.2306V80.1213H87.5692V67.2306H79.5692ZM81.2255 83.3628L88.6526 88.7326L93.3399 82.2495L85.9128 76.8797L81.2255 83.3628ZM88.7147 88.7765C87.0075 87.591 86.7129 85.298 87.8473 83.7272L94.3327 88.4111C95.738 86.4654 95.36 83.6515 93.2778 82.2056L88.7147 88.7765Z" fill="#007BB1" mask="url(#path-4-outside-1)"/>
</g>
<defs>
<clipPath id="clip0">
<rect width="109" height="109" fill="white" transform="matrix(-1 0 0 1 109 0)"/>
</clipPath>
</defs>
</svg>
