<svg width="54" height="72" viewBox="0 0 54 72" fill="none" xmlns="http://www.w3.org/2000/svg">
<path d="M14.1739 5.20029H7.19985C5.44942 5.20029 3.77069 5.89565 2.53295 7.13339C1.29521 8.37113 0.599854 10.0499 0.599854 11.8003V64.6003C0.599854 66.3507 1.29521 68.0294 2.53295 69.2672C3.77069 70.5049 5.44942 71.2003 7.19985 71.2003H46.7999C48.5503 71.2003 50.229 70.5049 51.4668 69.2672C52.7045 68.0294 53.3999 66.3507 53.3999 64.6003V11.8003C53.3999 10.0499 52.7045 8.37113 51.4668 7.13339C50.229 5.89565 48.5503 5.20029 46.7999 5.20029H39.8259C39.3707 3.91295 38.5275 2.79846 37.4124 2.01042C36.2973 1.22238 34.9653 0.799578 33.5999 0.800294H20.3999C19.0344 0.799578 17.7024 1.22238 16.5873 2.01042C15.4722 2.79846 14.629 3.91295 14.1739 5.20029ZM20.3999 5.20029H33.5999C34.1833 5.20029 34.7429 5.43208 35.1555 5.84466C35.5681 6.25724 35.7999 6.81682 35.7999 7.40029C35.7999 7.98377 35.5681 8.54335 35.1555 8.95593C34.7429 9.36851 34.1833 9.60029 33.5999 9.60029H20.3999C19.8164 9.60029 19.2568 9.36851 18.8442 8.95593C18.4316 8.54335 18.1999 7.98377 18.1999 7.40029C18.1999 6.81682 18.4316 6.25724 18.8442 5.84466C19.2568 5.43208 19.8164 5.20029 20.3999 5.20029ZM22.5999 29.4003C22.5999 28.8168 22.8316 28.2572 23.2442 27.8447C23.6568 27.4321 24.2164 27.2003 24.7999 27.2003H40.1999C40.7833 27.2003 41.3429 27.4321 41.7555 27.8447C42.1681 28.2572 42.3999 28.8168 42.3999 29.4003C42.3999 29.9838 42.1681 30.5433 41.7555 30.9559C41.3429 31.3685 40.7833 31.6003 40.1999 31.6003H24.7999C24.2164 31.6003 23.6568 31.3685 23.2442 30.9559C22.8316 30.5433 22.5999 29.9838 22.5999 29.4003ZM22.5999 42.6003C22.5999 42.0168 22.8316 41.4572 23.2442 41.0447C23.6568 40.6321 24.2164 40.4003 24.7999 40.4003H40.1999C40.7833 40.4003 41.3429 40.6321 41.7555 41.0447C42.1681 41.4572 42.3999 42.0168 42.3999 42.6003C42.3999 43.1838 42.1681 43.7433 41.7555 44.1559C41.3429 44.5685 40.7833 44.8003 40.1999 44.8003H24.7999C24.2164 44.8003 23.6568 44.5685 23.2442 44.1559C22.8316 43.7433 22.5999 43.1838 22.5999 42.6003ZM22.5999 55.8003C22.5999 55.2168 22.8316 54.6572 23.2442 54.2447C23.6568 53.8321 24.2164 53.6003 24.7999 53.6003H40.1999C40.7833 53.6003 41.3429 53.8321 41.7555 54.2447C42.1681 54.6572 42.3999 55.2168 42.3999 55.8003C42.3999 56.3838 42.1681 56.9433 41.7555 57.3559C41.3429 57.7685 40.7833 58.0003 40.1999 58.0003H24.7999C24.2164 58.0003 23.6568 57.7685 23.2442 57.3559C22.8316 56.9433 22.5999 56.3838 22.5999 55.8003ZM18.1999 29.4003C18.1999 30.2755 17.8522 31.1149 17.2333 31.7337C16.6144 32.3526 15.7751 32.7003 14.8999 32.7003C14.0246 32.7003 13.1853 32.3526 12.5664 31.7337C11.9475 31.1149 11.5999 30.2755 11.5999 29.4003C11.5999 28.5251 11.9475 27.6857 12.5664 27.0668C13.1853 26.448 14.0246 26.1003 14.8999 26.1003C15.7751 26.1003 16.6144 26.448 17.2333 27.0668C17.8522 27.6857 18.1999 28.5251 18.1999 29.4003ZM18.1999 42.6003C18.1999 43.4755 17.8522 44.3149 17.2333 44.9337C16.6144 45.5526 15.7751 45.9003 14.8999 45.9003C14.0246 45.9003 13.1853 45.5526 12.5664 44.9337C11.9475 44.3149 11.5999 43.4755 11.5999 42.6003C11.5999 41.7251 11.9475 40.8857 12.5664 40.2668C13.1853 39.648 14.0246 39.3003 14.8999 39.3003C15.7751 39.3003 16.6144 39.648 17.2333 40.2668C17.8522 40.8857 18.1999 41.7251 18.1999 42.6003ZM14.8999 59.1003C14.0246 59.1003 13.1853 58.7526 12.5664 58.1337C11.9475 57.5149 11.5999 56.6755 11.5999 55.8003C11.5999 54.9251 11.9475 54.0857 12.5664 53.4668C13.1853 52.848 14.0246 52.5003 14.8999 52.5003C15.7751 52.5003 16.6144 52.848 17.2333 53.4668C17.8522 54.0857 18.1999 54.9251 18.1999 55.8003C18.1999 56.6755 17.8522 57.5149 17.2333 58.1337C16.6144 58.7526 15.7751 59.1003 14.8999 59.1003Z" fill="#01FFCD"/>
</svg>
