<svg width="58" height="78" viewBox="0 0 58 78" fill="none" xmlns="http://www.w3.org/2000/svg">
<path d="M15.008 5.4001H7.39995C5.49039 5.4001 3.65904 6.15867 2.30878 7.50893C0.958519 8.85919 0.199951 10.6905 0.199951 12.6001V70.2001C0.199951 72.1096 0.958519 73.941 2.30878 75.2913C3.65904 76.6415 5.49039 77.4001 7.39995 77.4001H50.5999C52.5095 77.4001 54.3409 76.6415 55.6911 75.2913C57.0414 73.941 57.7999 72.1096 57.7999 70.2001V12.6001C57.7999 10.6905 57.0414 8.85919 55.6911 7.50893C54.3409 6.15867 52.5095 5.4001 50.5999 5.4001H42.9919C42.4954 3.99572 41.5756 2.77991 40.3591 1.92023C39.1427 1.06055 37.6895 0.599318 36.1999 0.600099H21.7999C20.3104 0.599318 18.8572 1.06055 17.6408 1.92023C16.4243 2.77991 15.5045 3.99572 15.008 5.4001ZM21.7999 5.4001H36.1999C36.8365 5.4001 37.4469 5.65296 37.897 6.10304C38.3471 6.55313 38.5999 7.16358 38.5999 7.8001C38.5999 8.43662 38.3471 9.04707 37.897 9.49715C37.4469 9.94724 36.8365 10.2001 36.1999 10.2001H21.7999C21.1634 10.2001 20.553 9.94724 20.1029 9.49715C19.6528 9.04707 19.4 8.43662 19.4 7.8001C19.4 7.16358 19.6528 6.55313 20.1029 6.10304C20.553 5.65296 21.1634 5.4001 21.7999 5.4001ZM24.1999 31.8001C24.1999 31.1636 24.4528 30.5531 24.9029 30.103C25.353 29.6529 25.9634 29.4001 26.5999 29.4001H43.3999C44.0365 29.4001 44.6469 29.6529 45.097 30.103C45.5471 30.5531 45.7999 31.1636 45.7999 31.8001C45.7999 32.4366 45.5471 33.0471 45.097 33.4972C44.6469 33.9472 44.0365 34.2001 43.3999 34.2001H26.5999C25.9634 34.2001 25.353 33.9472 24.9029 33.4972C24.4528 33.0471 24.1999 32.4366 24.1999 31.8001ZM24.1999 46.2001C24.1999 45.5636 24.4528 44.9531 24.9029 44.503C25.353 44.0529 25.9634 43.8001 26.5999 43.8001H43.3999C44.0365 43.8001 44.6469 44.0529 45.097 44.503C45.5471 44.9531 45.7999 45.5636 45.7999 46.2001C45.7999 46.8366 45.5471 47.4471 45.097 47.8971C44.6469 48.3472 44.0365 48.6001 43.3999 48.6001H26.5999C25.9634 48.6001 25.353 48.3472 24.9029 47.8971C24.4528 47.4471 24.1999 46.8366 24.1999 46.2001ZM24.1999 60.6001C24.1999 59.9636 24.4528 59.3531 24.9029 58.903C25.353 58.4529 25.9634 58.2001 26.5999 58.2001H43.3999C44.0365 58.2001 44.6469 58.4529 45.097 58.903C45.5471 59.3531 45.7999 59.9636 45.7999 60.6001C45.7999 61.2366 45.5471 61.8471 45.097 62.2971C44.6469 62.7472 44.0365 63.0001 43.3999 63.0001H26.5999C25.9634 63.0001 25.353 62.7472 24.9029 62.2971C24.4528 61.8471 24.1999 61.2366 24.1999 60.6001ZM19.4 31.8001C19.4 32.7549 19.0207 33.6705 18.3455 34.3457C17.6704 35.0208 16.7547 35.4001 15.8 35.4001C14.8452 35.4001 13.9295 35.0208 13.2544 34.3457C12.5792 33.6705 12.2 32.7549 12.2 31.8001C12.2 30.8453 12.5792 29.9296 13.2544 29.2545C13.9295 28.5794 14.8452 28.2001 15.8 28.2001C16.7547 28.2001 17.6704 28.5794 18.3455 29.2545C19.0207 29.9296 19.4 30.8453 19.4 31.8001ZM19.4 46.2001C19.4 47.1549 19.0207 48.0705 18.3455 48.7457C17.6704 49.4208 16.7547 49.8001 15.8 49.8001C14.8452 49.8001 13.9295 49.4208 13.2544 48.7457C12.5792 48.0705 12.2 47.1549 12.2 46.2001C12.2 45.2453 12.5792 44.3296 13.2544 43.6545C13.9295 42.9794 14.8452 42.6001 15.8 42.6001C16.7547 42.6001 17.6704 42.9794 18.3455 43.6545C19.0207 44.3296 19.4 45.2453 19.4 46.2001ZM15.8 64.2001C14.8452 64.2001 13.9295 63.8208 13.2544 63.1457C12.5792 62.4705 12.2 61.5549 12.2 60.6001C12.2 59.6453 12.5792 58.7296 13.2544 58.0545C13.9295 57.3794 14.8452 57.0001 15.8 57.0001C16.7547 57.0001 17.6704 57.3794 18.3455 58.0545C19.0207 58.7296 19.4 59.6453 19.4 60.6001C19.4 61.5549 19.0207 62.4705 18.3455 63.1457C17.6704 63.8208 16.7547 64.2001 15.8 64.2001Z" fill="white"/>
</svg>
