<svg width="58" height="58" viewBox="0 0 58 58" fill="none" xmlns="http://www.w3.org/2000/svg">
<path d="M48.2083 15.7082V24.5536C48.2083 24.5536 42.3213 24.5832 42.2917 24.5536V15.7082H33.4167C33.4167 15.7082 33.4463 9.82109 33.4167 9.7915H42.2917V0.916504H48.2083V9.7915H57.0833V15.7082H48.2083ZM39.3333 27.5415V18.6665H30.4583V9.7915H6.79167C3.5375 9.7915 0.875 12.454 0.875 15.7082V51.2082C0.875 54.4623 3.5375 57.1248 6.79167 57.1248H42.2917C45.5458 57.1248 48.2083 54.4623 48.2083 51.2082V27.5415H39.3333ZM6.79167 51.2082L15.6667 39.3748L21.5833 48.2498L30.4583 36.4165L42.2917 51.2082H6.79167Z" fill="#004483"/>
</svg>
