<svg width="113" height="104" viewBox="0 0 113 104" fill="none" xmlns="http://www.w3.org/2000/svg">
<rect x="8" y="41" width="98" height="29" fill="#004483"/>
<g filter="url(#filter0_d)">
<path d="M102.187 32.8908L95.0623 11.5158C94.0288 8.40372 92.0407 5.69652 89.3807 3.77885C86.7206 1.86118 83.5239 0.830589 80.2446 0.833502H32.755C29.4758 0.830589 26.2791 1.86118 23.619 3.77885C20.959 5.69652 18.9709 8.40372 17.9373 11.5158L10.8123 32.8908C8.91766 33.6836 7.29963 35.0188 6.16164 36.7285C5.02366 38.4383 4.4165 40.4463 4.4165 42.5002V68.5418C4.4165 72.3856 6.52067 75.7085 9.62484 77.5158V89.3752C9.62484 90.7565 10.1736 92.0813 11.1503 93.058C12.1271 94.0348 13.4518 94.5835 14.8332 94.5835H20.0415C21.4228 94.5835 22.7476 94.0348 23.7244 93.058C24.7011 92.0813 25.2498 90.7565 25.2498 89.3752V78.9585H87.7498V89.3752C87.7498 90.7565 88.2986 92.0813 89.2753 93.058C90.2521 94.0348 91.5768 94.5835 92.9582 94.5835H98.1665C99.5478 94.5835 100.873 94.0348 101.849 93.058C102.826 92.0813 103.375 90.7565 103.375 89.3752V77.5158C104.955 76.6096 106.268 75.3029 107.183 73.7275C108.097 72.152 108.58 70.3634 108.583 68.5418V42.5002C108.583 40.4463 107.976 38.4383 106.838 36.7285C105.7 35.0188 104.082 33.6836 102.187 32.8908ZM32.755 11.2502H80.2394C82.4842 11.2502 84.4738 12.6773 85.1821 14.8127L90.9426 32.0835H22.0571L27.8123 14.8127C28.1579 13.7751 28.8213 12.8727 29.7084 12.2333C30.5956 11.5939 31.6615 11.2499 32.755 11.2502ZM22.6457 63.3335C21.6194 63.3332 20.6032 63.1307 19.6552 62.7376C18.7071 62.3446 17.8458 61.7686 17.1203 61.0427C16.3949 60.3167 15.8195 59.455 15.4271 58.5067C15.0346 57.5584 14.8328 56.5421 14.8332 55.5158C14.8335 54.4895 15.036 53.4733 15.4291 52.5253C15.8221 51.5772 16.3981 50.7159 17.124 49.9904C17.8499 49.265 18.7117 48.6896 19.66 48.2972C20.6083 47.9048 21.6246 47.7029 22.6509 47.7033C24.7236 47.704 26.7111 48.528 28.1762 49.9941C29.6414 51.4602 30.4641 53.4483 30.4634 55.521C30.4627 57.5937 29.6387 59.5812 28.1725 61.0464C26.7064 62.5115 24.7184 63.3342 22.6457 63.3335ZM90.354 63.3335C89.3277 63.3332 88.3115 63.1307 87.3635 62.7376C86.4155 62.3446 85.5541 61.7686 84.8287 61.0427C84.1032 60.3167 83.5278 59.455 83.1354 58.5067C82.743 57.5584 82.5412 56.5421 82.5415 55.5158C82.5418 54.4895 82.7443 53.4733 83.1374 52.5253C83.5305 51.5772 84.1064 50.7159 84.8323 49.9904C85.5583 49.265 86.42 48.6896 87.3683 48.2972C88.3166 47.9048 89.3329 47.7029 90.3592 47.7033C92.4319 47.704 94.4194 48.528 95.8846 49.9941C97.3497 51.4602 98.1724 53.4483 98.1717 55.521C98.171 57.5937 97.347 59.5812 95.8809 61.0464C94.4148 62.5115 92.4267 63.3342 90.354 63.3335Z" fill="#01FFCD"/>
</g>
<defs>
<filter id="filter0_d" x="0.416504" y="0.833496" width="112.167" height="102.75" filterUnits="userSpaceOnUse" color-interpolation-filters="sRGB">
<feFlood flood-opacity="0" result="BackgroundImageFix"/>
<feColorMatrix in="SourceAlpha" type="matrix" values="0 0 0 0 0 0 0 0 0 0 0 0 0 0 0 0 0 0 127 0" result="hardAlpha"/>
<feOffset dy="5"/>
<feGaussianBlur stdDeviation="2"/>
<feComposite in2="hardAlpha" operator="out"/>
<feColorMatrix type="matrix" values="0 0 0 0 0 0 0 0 0 0 0 0 0 0 0 0 0 0 0.2 0"/>
<feBlend mode="normal" in2="BackgroundImageFix" result="effect1_dropShadow"/>
<feBlend mode="normal" in="SourceGraphic" in2="effect1_dropShadow" result="shape"/>
</filter>
</defs>
</svg>
